<?xml version="1.0" encoding="utf-8"?>
<!-- Generator: Adobe Illustrator 23.0.1, SVG Export Plug-In . SVG Version: 6.00 Build 0)  -->
<svg version="1.1" id="Layer_1" xmlns="http://www.w3.org/2000/svg" xmlns:xlink="http://www.w3.org/1999/xlink" x="0px" y="0px"
	 viewBox="0 0 74.9 70.1" style="enable-background:new 0 0 74.9 70.1;" xml:space="preserve">
<style type="text/css">
	.st0{fill:#FFFFFF;}
</style>
<g>
	<path class="st0" d="M0.5,70.1C0.3,70,0.1,69.9,0,69.8C0,69.6,0,69.3,0,69C0,46,0,23,0,0c24.9,0,49.9,0,74.9,0
		c0,20.1,0,40.1,0,60.2c-2.2,0-3.9-0.8-5.1-2.6c-0.8-1.1-1.4-2.4-1.8-3.7c-1.3-3.8-1.4-7.7-1.4-11.6c0-13.5,0-27,0-40.4
		c0-0.5,0-1,0-1.6c-2.3,0-4.5,0.1-6.6,0c-1,0-1.5,0.3-1.9,1.2C51.7,15.6,45.3,29.8,38.9,44c-0.2,0.5-0.5,1-0.8,1.6
		c-0.2-0.5-0.4-0.8-0.6-1.2c-2.7-5.9-5.5-11.9-8.2-17.8c-3.9-8.5-7.8-17-11.8-25.4c-0.2-0.4-0.6-0.9-0.9-0.9c-2.6-0.1-5.2,0-8,0
		c0,0.6,0,1.1,0,1.6c0,16.6,0,33.2,0,49.8c0,2.3-0.1,4.7-0.5,6.9c-0.8,4.5-1.8,9.1-7.7,9.9C0.4,69,0.5,69.5,0.5,70.1z"/>
	<path d="M0.5,70.1c0-0.5-0.1-1.1-0.1-1.7c5.9-0.8,6.9-5.4,7.7-9.9c0.4-2.3,0.5-4.6,0.5-6.9c0-16.6,0-33.2,0-49.8c0-0.5,0-0.9,0-1.6
		c2.7,0,5.4,0,8,0c0.3,0,0.7,0.6,0.9,0.9c3.9,8.5,7.8,16.9,11.8,25.4c2.7,5.9,5.5,11.9,8.2,17.8c0.2,0.4,0.4,0.7,0.6,1.2
		c0.3-0.6,0.5-1.1,0.8-1.6c6.4-14.2,12.9-28.4,19.2-42.7C58.5,0.5,59,0.2,60,0.2c2.1,0.1,4.3,0,6.6,0c0,0.6,0,1.1,0,1.6
		c0,13.5,0,27,0,40.4c0,3.9,0.1,7.9,1.4,11.6c0.4,1.3,1.1,2.6,1.8,3.7c1.2,1.8,3,2.6,5.1,2.6c0,0.6,0,1.3,0,1.9
		c-1.7-0.2-3.3-0.3-5-0.5c-5.6-0.8-9.1-3.8-10.3-9.4c-0.6-3-0.9-6-0.9-9c-0.1-10.6,0-21.2,0-31.8c0-0.4,0-0.8-0.1-1.2
		c-0.4,0.4-0.6,0.7-0.7,1.1C51,26.6,44.1,41.8,37.3,57.1c-0.3,0.7-0.6,1-1.5,1c-0.8,0-1-0.5-1.2-1c-5.7-12.4-11.4-24.9-17.2-37.3
		c-0.2-0.4-0.3-0.7-0.5-1c-0.1,0-0.1,0.1-0.2,0.1c0,0.4,0,0.9,0,1.3c0,10.3,0.1,20.6,0,30.8c0,3-0.3,6-0.8,8.9
		c-0.9,5.2-4,8.5-9.3,9.6c-0.9,0.2-1.8,0.4-2.7,0.5C2.7,70.1,1.6,70.1,0.5,70.1z"/>
	<path class="st0" d="M3.9,70.1c0.9-0.2,1.8-0.4,2.7-0.5c5.2-1.1,8.4-4.4,9.3-9.6c0.5-2.9,0.8-5.9,0.8-8.9c0.1-10.3,0-20.6,0-30.8
		c0-0.4,0-0.9,0-1.3c0.1,0,0.1-0.1,0.2-0.1c0.2,0.3,0.4,0.7,0.5,1c5.7,12.4,11.5,24.9,17.2,37.3c0.3,0.6,0.4,1,1.2,1
		c0.8,0,1.2-0.3,1.5-1C44.1,41.8,51,26.6,57.9,11.3c0.2-0.4,0.3-0.7,0.7-1.1c0,0.4,0.1,0.8,0.1,1.2c0,10.6-0.1,21.2,0,31.8
		c0,3,0.3,6.1,0.9,9c1.1,5.5,4.7,8.6,10.3,9.4c1.7,0.2,3.3,0.3,5,0.5c0,2.6,0,5.3,0,7.9C51.2,70.1,27.5,70.1,3.9,70.1z"/>
</g>
</svg>
