<?xml version="1.0" encoding="UTF-8"?>
<svg xmlns="http://www.w3.org/2000/svg" viewBox="0 0 332.25 120.18">
  <defs>
    <style>.cls-1{fill:#1b2d51;}.cls-2{fill:#58585a;}</style>
  </defs>
  <title>branton</title>
  <g id="Layer_2" data-name="Layer 2">
    <g id="Layer_1-2" data-name="Layer 1">
      <path class="cls-1" d="M8,72.46c0-8,0-9.46-.13-11.14s-.64-2.62-2.75-3a15.52,15.52,0,0,0-2.5-.16c-.71,0-1.09-.11-1.09-.47S2,57.22,3,57.22c3.39,0,7.43.16,8.71.16,3.15,0,5.65-.16,7.82-.16,11.61,0,13.66,5.1,13.66,7.89,0,4.31-3,6.88-6.54,9.19,5.26,1.47,11.67,5.21,11.67,11.35,0,5.63-5.32,11.46-17.12,11.46-1.54,0-7.37-.31-9.29-.31-1.48,0-5.52.15-8.08.15-.83,0-1.28-.15-1.28-.52s.25-.42,1-.42a13.22,13.22,0,0,0,2.31-.21c1.28-.21,1.6-1.37,1.86-2.89A102.77,102.77,0,0,0,8,81.71Zm7.69.9a.5.5,0,0,0,.45.58,20,20,0,0,0,3,.15c2.12,0,3.53-.21,4.62-1a6.28,6.28,0,0,0,2.63-5.57,8,8,0,0,0-8-8.14,13.3,13.3,0,0,0-2.12.1c-.45.11-.58.32-.58.9Zm8.46,4.2a10.71,10.71,0,0,0-5.32-1.26c-1.15,0-1.79,0-2.75,0-.26,0-.39.1-.39.37V89.07c0,3.47.2,4.36,2.25,5a13.82,13.82,0,0,0,4.68.64c2.88,0,7.75-1.27,7.75-6.73A11.8,11.8,0,0,0,24.18,77.56Z"></path>
      <path class="cls-1" d="M49.44,72.46c0-8,0-9.46-.13-11.14s-.64-2.62-2.75-3a15.44,15.44,0,0,0-2.5-.16c-.71,0-1.09-.11-1.09-.47s.45-.48,1.41-.48c3.4,0,7.43.16,8.78.16,2.18,0,7.05-.16,9-.16,4,0,8.33.32,11.79,2.26a8.75,8.75,0,0,1,4.36,7.2c0,3.89-2,7.47-8.46,11.77C75.6,84.34,80,89,83.8,92.28c3.59,3,6.22,3.41,7.18,3.57a13.08,13.08,0,0,0,1.8.16c.51,0,.76.15.76.42s-.44.52-1.21.52H86.24c-3.59,0-5.2-.26-6.86-1-2.76-1.2-5.19-3.67-8.78-7.72C68,85.34,65.08,81.77,64.25,81a1.49,1.49,0,0,0-1.15-.37l-5.58-.11c-.32,0-.51.11-.51.42v.74a103.31,103.31,0,0,0,.32,11.25c.19,1.52.57,2.68,2.5,2.89,1,.1,2.37.21,3.14.21.51,0,.77.15.77.42s-.45.52-1.28.52C58.74,97,54,96.8,53,96.8c-1.22,0-5.25.15-7.82.15-.83,0-1.28-.15-1.28-.52s.26-.42,1-.42a13,13,0,0,0,2.3-.21c1.28-.21,1.61-1.37,1.86-2.89a102.77,102.77,0,0,0,.32-11.2ZM57,76.62c0,.57.12.78.57.94a20.34,20.34,0,0,0,4.88.53c2.56,0,3.39-.21,4.55-.9,1.92-1.15,3.78-3.57,3.78-7.88,0-7.46-6-9.62-9.81-9.62a17.75,17.75,0,0,0-3.4.21.64.64,0,0,0-.57.74Z"></path>
      <path class="cls-1" d="M104.94,83.24c-.31,0-.43.1-.56.42l-3.32,7.51a9.13,9.13,0,0,0-.92,3.21c0,.94.55,1.63,2.46,1.63h.92c.74,0,.92.1.92.42s-.36.52-1,.52c-2,0-4.61-.15-6.52-.15-.67,0-4,.15-7.25.15-.8,0-1.17-.1-1.17-.52s.25-.42.74-.42,1.41-.06,1.9-.11c2.83-.31,4-2.1,5.23-4.73l15.43-33c.74-1.52,1.11-2.1,1.72-2.1s.92.47,1.54,1.68c1.47,2.89,11.31,24.33,15.24,32.32,2.34,4.73,4.12,5.46,5.41,5.73a16.75,16.75,0,0,0,2.59.21c.49,0,.8,0,.8.42s-.56.52-2.83.52-6.7,0-11.62-.1c-1.11,0-1.85,0-1.85-.42s.25-.42.86-.48a.81.81,0,0,0,.56-1.2L119.26,83.6a.59.59,0,0,0-.61-.36Zm12.54-2.63c.31,0,.37-.16.31-.32l-5.54-13c-.06-.21-.12-.47-.31-.47s-.3.26-.36.47l-5.66,12.93c-.06.21,0,.37.25.37Z"></path>
      <path class="cls-1" d="M147.09,89.81c.11,4.09.88,5.46,2.06,5.83a10.55,10.55,0,0,0,3.06.37c.64,0,1,.1,1,.42s-.53.52-1.36.52c-3.82,0-6.18-.15-7.29-.15-.53,0-3.3.15-6.36.15-.77,0-1.3,0-1.3-.52s.36-.42.95-.42a11.75,11.75,0,0,0,2.65-.27c1.53-.42,1.76-1.94,1.82-6.51l.53-31.11c0-1,.18-1.79.76-1.79s1.18.68,2.18,1.63c.71.68,9.65,9.25,18.25,16.87C168,78.4,176,86,177,86.81h.3l-.59-23.6c-.06-3.2-.59-4.2-2-4.73a10.88,10.88,0,0,0-3.12-.31c-.71,0-.94-.16-.94-.47s.65-.48,1.53-.48c3.06,0,5.88.16,7.12.16.65,0,2.88-.16,5.77-.16.76,0,1.35.06,1.35.48s-.35.47-1.06.47a7,7,0,0,0-1.76.16c-1.65.42-2.12,1.52-2.18,4.46L180.75,96c0,1.16-.24,1.63-.76,1.63a3.62,3.62,0,0,1-2-1.15c-3.7-3.16-11.24-10-17.36-15.45-6.41-5.68-13-12.25-14-13.25h-.18Z"></path>
      <path class="cls-1" d="M207.29,60.17l-8.77.21c-3.41.1-4.82.36-5.71,1.52a6.23,6.23,0,0,0-1,1.84c-.11.42-.29.63-.64.63s-.53-.26-.53-.84c0-.84,1.11-5.62,1.23-6,.18-.69.36-1,.71-1a15.45,15.45,0,0,0,2.53.63c1.71.16,3.94.26,5.88.26H224.3a28.87,28.87,0,0,0,5.65-.52c.41,0,.47.31.47,1.1,0,1.1-.18,4.73-.18,6.1-.05.52-.17.84-.53.84s-.58-.27-.64-1.05l-.06-.58c-.12-1.37-1.71-2.84-6.95-3l-7.41-.15V81.71c0,4.84,0,9,.29,11.25.18,1.47.53,2.63,2.3,2.84a29,29,0,0,0,3,.21c.65,0,.94.15.94.42s-.47.52-1.12.52c-3.88,0-7.59-.15-9.24-.15-1.35,0-5.06.15-7.41.15-.77,0-1.18-.15-1.18-.52s.24-.42.94-.42a11.15,11.15,0,0,0,2.12-.21c1.18-.21,1.53-1.37,1.71-2.89.29-2.21.29-6.36.29-11.2Z"></path>
      <path class="cls-1" d="M232.8,77.09c0-9,6.6-20.6,24.1-20.6,14.52,0,23.56,7.62,23.56,19.65s-9.33,21.55-24.15,21.55C239.57,97.69,232.8,86.39,232.8,77.09Zm39.5,1c0-11.77-7.53-19.08-17.09-19.08-6.71,0-14.35,3.36-14.35,16.45,0,10.93,6.7,19.6,17.9,19.6C262.85,95.06,272.3,93.27,272.3,78.09Z"></path>
      <path class="cls-1" d="M292.58,89.81c.12,4.09.9,5.46,2.08,5.83a10.79,10.79,0,0,0,3.09.37c.65,0,1,.1,1,.42s-.53.52-1.37.52c-3.85,0-6.23-.15-7.36-.15-.53,0-3.32.15-6.41.15-.77,0-1.31,0-1.31-.52s.36-.42.95-.42a12,12,0,0,0,2.68-.27c1.54-.42,1.78-1.94,1.84-6.51l.53-31.11c0-1,.18-1.79.77-1.79s1.19.68,2.2,1.63c.71.68,9.74,9.25,18.4,16.87,4,3.57,12.06,11.14,13.07,12H323l-.59-23.6c-.06-3.2-.59-4.2-2-4.73a11.05,11.05,0,0,0-3.15-.31c-.71,0-.95-.16-.95-.47s.66-.48,1.55-.48c3.08,0,5.93.16,7.18.16.65,0,2.91-.16,5.82-.16.77,0,1.37.06,1.37.48s-.36.47-1.07.47a7.13,7.13,0,0,0-1.78.16c-1.67.42-2.14,1.52-2.2,4.46L326.55,96c0,1.16-.24,1.63-.78,1.63a3.62,3.62,0,0,1-2-1.15c-3.75-3.16-11.34-10-17.52-15.45-6.47-5.68-13.06-12.25-14.13-13.25h-.18Z"></path>
      <path class="cls-1" d="M10.67,113.44c0,2.13,0,3.79.09,4.72.06.65.17,1.13.74,1.22a5.87,5.87,0,0,0,.94.09c.24,0,.32.07.32.18s-.13.22-.42.22c-1.18,0-2.37-.07-2.86-.07s-1.67.07-2.39.07c-.26,0-.4-.05-.4-.22s.08-.18.29-.18a2.43,2.43,0,0,0,.68-.09c.37-.09.47-.57.54-1.22.09-.93.09-2.59.09-4.72v-3.9c0-3.36,0-4,0-4.69s-.19-1.11-.81-1.27a3.67,3.67,0,0,0-.74-.06c-.18,0-.32,0-.32-.18s.15-.22.44-.22c1,0,2.16.07,2.71.07.71,0,4.54,0,5,0a2.83,2.83,0,0,0,.77-.09c.11,0,.21-.13.3-.13s.13.09.13.2-.09.42-.15,1c0,.22-.05,1.53-.09,1.79s-.06.31-.19.31-.17-.11-.19-.35a2.57,2.57,0,0,0-.11-.84,1.31,1.31,0,0,0-1.24-.67l-2.9-.06c-.12,0-.17.06-.17.31v5.53c0,.14,0,.2.13.2l2.41,0c.32,0,.58,0,.85,0a.92.92,0,0,0,.81-.4c.09-.13.13-.22.24-.22s.11.07.11.2-.09.69-.15,1.37c0,.45-.07,1.46-.07,1.62s0,.42-.19.42-.15-.15-.15-.31a3.19,3.19,0,0,0-.11-.69,1.14,1.14,0,0,0-1-.79c-.47-.07-2.47-.07-2.79-.07-.09,0-.13,0-.13.2Z"></path>
      <path class="cls-1" d="M25.74,113.44c0,2.84,0,4.37.39,4.77s.81.48,2.28.48c1,0,1.73,0,2.2-.62a3,3,0,0,0,.49-1.33c0-.19.06-.33.21-.33s.15.11.15.38a20.72,20.72,0,0,1-.28,2.55c-.12.48-.21.6-1.19.6-2.71,0-3.95-.14-5.48-.14-.43,0-1.62.07-2.37.07-.25,0-.38-.07-.38-.22s.08-.18.3-.18a2.38,2.38,0,0,0,.68-.09c.38-.09.47-.57.55-1.22.09-.93.09-2.68.09-4.72v-3.9c0-3.36,0-4,0-4.69s-.18-1.11-.81-1.27a2.59,2.59,0,0,0-.62-.06c-.2,0-.32,0-.32-.2s.13-.2.42-.2c.88,0,2.07.07,2.58.07s1.82-.07,2.56-.07c.26,0,.39,0,.39.2s-.11.2-.34.2a4.78,4.78,0,0,0-.73.06c-.51.11-.66.49-.7,1.27s0,1.33,0,4.69Z"></path>
      <path class="cls-1" d="M36,111.49c0-3.78,2.13-8.68,7.78-8.68,4.69,0,7.61,3.21,7.61,8.29s-3,9.08-7.8,9.08C38.19,120.18,36,115.42,36,111.49Zm12.75.43c0-5-2.43-8-5.52-8-2.16,0-4.63,1.42-4.63,6.94,0,4.61,2.17,8.26,5.78,8.26C45.7,119.07,48.75,118.32,48.75,111.92Z"></path>
      <path class="cls-1" d="M57.21,111.49c0-3.78,2.13-8.68,7.78-8.68,4.69,0,7.61,3.21,7.61,8.29s-3,9.08-7.8,9.08C59.4,120.18,57.21,115.42,57.21,111.49Zm12.75.43c0-5-2.43-8-5.52-8-2.16,0-4.63,1.42-4.63,6.94,0,4.61,2.17,8.26,5.78,8.26C66.91,119.07,70,118.32,70,111.92Z"></path>
      <path class="cls-1" d="M79.91,109.54c0-3.36,0-4,0-4.69s-.19-1.11-.81-1.27a3.73,3.73,0,0,0-.74-.06c-.21,0-.32,0-.32-.2s.13-.2.42-.2c1,0,2.18.07,2.57.07.65,0,2.08-.07,2.66-.07a5.28,5.28,0,0,1,3.46.95,4.07,4.07,0,0,1,1.29,3c0,1.64-.59,3.14-2.49,5,1.68,2.48,3,4.45,4.09,5.83a3.6,3.6,0,0,0,2.1,1.5,2.27,2.27,0,0,0,.53.07c.15,0,.23.07.23.18s-.13.22-.36.22H90.72a3.34,3.34,0,0,1-2-.42,10.07,10.07,0,0,1-2.58-3.26c-.76-1.22-1.62-2.72-1.87-3.06a.36.36,0,0,0-.34-.15l-1.63,0c-.1,0-.16,0-.16.18v.31c0,2.06,0,3.81.1,4.74.06.65.17,1.13.73,1.22a6.61,6.61,0,0,0,.93.09c.15,0,.22.07.22.18s-.13.22-.37.22c-1.1,0-2.49-.07-2.77-.07s-1.55.07-2.3.07c-.24,0-.38-.07-.38-.22s.08-.18.3-.18a2.38,2.38,0,0,0,.68-.09c.38-.09.47-.57.55-1.22.09-.93.09-2.68.09-4.72Zm2.22,1.75c0,.25,0,.34.17.4a4.18,4.18,0,0,0,1.44.23,1.66,1.66,0,0,0,1.33-.38,4.24,4.24,0,0,0,1.11-3.33c0-3.14-1.77-4-2.88-4a3.42,3.42,0,0,0-1,.09c-.13,0-.17.13-.17.31Z"></path>
      <path class="cls-1" d="M97.5,109.54c0-3.36,0-4,0-4.69s-.23-1.13-.64-1.24a2.23,2.23,0,0,0-.68-.09c-.19,0-.3,0-.3-.22s.15-.18.45-.18c.72,0,1.9.07,2.45.07s1.58-.07,2.29-.07c.25,0,.4,0,.4.18s-.11.22-.3.22a3.07,3.07,0,0,0-.57.06c-.5.11-.65.49-.69,1.27s0,1.33,0,4.69v3.9c0,2.15,0,3.9.08,4.86,0,.59.18,1,.75,1.08a6,6,0,0,0,1,.09c.21,0,.3.07.3.18s-.15.22-.36.22c-1.24,0-2.43-.07-2.94-.07s-1.61.07-2.37.07c-.24,0-.37-.07-.37-.22s.07-.18.3-.18a2.43,2.43,0,0,0,.68-.09c.37-.09.48-.46.54-1.11.09-.93.09-2.68.09-4.83Z"></path>
      <path class="cls-1" d="M110.82,116.86c0,1.72.28,2.3.66,2.46a2.63,2.63,0,0,0,1,.15c.21,0,.32,0,.32.18s-.17.22-.43.22c-1.23,0-2-.07-2.34-.07-.17,0-1.05.07-2,.07-.25,0-.42,0-.42-.22s.12-.18.31-.18a2.78,2.78,0,0,0,.84-.11c.49-.18.57-.82.59-2.75l.17-13.11c0-.45,0-.76.24-.76s.38.29.7.69,3.09,3.9,5.83,7.11c1.28,1.51,3.83,4.7,4.15,5h.09l-.19-10c0-1.35-.19-1.77-.64-2a2.68,2.68,0,0,0-1-.13c-.22,0-.3-.07-.3-.2s.21-.2.49-.2c1,0,1.89.07,2.28.07.21,0,.92-.07,1.85-.07.24,0,.43,0,.43.2s-.11.2-.34.2a1.88,1.88,0,0,0-.56.06c-.53.18-.68.65-.7,1.89l-.21,14c0,.49-.07.68-.24.68s-.44-.24-.64-.48c-1.19-1.33-3.6-4.23-5.56-6.52s-4.14-5.16-4.48-5.58h-.06Z"></path>
      <path class="cls-1" d="M142.31,118.38c0,.6,0,.65-.24.8a9.22,9.22,0,0,1-4.54,1c-4.61,0-8.7-2.57-8.7-8.69a8.69,8.69,0,0,1,3.28-7.24,8,8,0,0,1,5.06-1.44,19.21,19.21,0,0,1,3.33.35,11.87,11.87,0,0,0,1.49.25c.23,0,.27.11.27.26a33.42,33.42,0,0,0-.14,3.64c0,.35-.05.46-.2.46s-.17-.11-.19-.29a3.49,3.49,0,0,0-.64-1.84,5.58,5.58,0,0,0-4.2-1.72,4.89,4.89,0,0,0-3.73,1.37c-1,1-1.73,2.7-1.73,5.43,0,4.76,2.58,8.33,6.55,8.33a3.63,3.63,0,0,0,1.6-.24.85.85,0,0,0,.36-.82V115.9c0-1.1,0-2,0-2.61s-.19-1.11-.81-1.26a3,3,0,0,0-.73-.07c-.17,0-.29,0-.29-.18s.14-.22.4-.22c1,0,2.17.07,2.73.07s1.58-.07,2.2-.07c.25,0,.38,0,.38.22s-.11.18-.25.18a2.11,2.11,0,0,0-.5.07c-.51.11-.7.48-.72,1.26s0,1.55,0,2.66Z"></path>
      <path class="cls-1" d="M160.25,117.76a9.88,9.88,0,0,1-.14-12.6,7.49,7.49,0,0,1,5.95-2.35,16.11,16.11,0,0,1,2.73.22c.72.11,1.32.31,1.89.38.2,0,.28.13.28.26s-.06.45-.09,1.22,0,2-.06,2.39-.06.51-.23.51-.18-.17-.18-.48a3.47,3.47,0,0,0-.74-2,5.06,5.06,0,0,0-3.82-1.38,4.47,4.47,0,0,0-3.54,1.38c-1.38,1.48-1.73,3.59-1.73,5.74,0,5.27,3.4,7.88,5.93,7.88,1.67,0,2.69-.22,3.44-1.24a3.86,3.86,0,0,0,.64-1.46c.06-.35.1-.44.25-.44s.17.15.17.33a24.47,24.47,0,0,1-.42,3,.76.76,0,0,1-.49.64,9.43,9.43,0,0,1-3.38.51A8.51,8.51,0,0,1,160.25,117.76Z"></path>
      <path class="cls-1" d="M176.35,111.49c0-3.78,2.13-8.68,7.78-8.68,4.69,0,7.6,3.21,7.6,8.29s-3,9.08-7.79,9.08C178.54,120.18,176.35,115.42,176.35,111.49Zm12.75.43c0-5-2.43-8-5.52-8-2.16,0-4.63,1.42-4.63,6.94,0,4.61,2.17,8.26,5.78,8.26C186.05,119.07,189.1,118.32,189.1,111.92Z"></path>
      <path class="cls-1" d="M201.4,113.44c0,2.84,0,4.37.4,4.77s.81.48,2.28.48c1,0,1.73,0,2.2-.62a3,3,0,0,0,.49-1.33c0-.19.06-.33.21-.33s.15.11.15.38a20.72,20.72,0,0,1-.28,2.55c-.12.48-.21.6-1.19.6-2.71,0-3.95-.14-5.48-.14-.43,0-1.62.07-2.37.07-.25,0-.38-.07-.38-.22s.08-.18.3-.18a2.38,2.38,0,0,0,.68-.09c.38-.09.47-.57.55-1.22.09-.93.09-2.68.09-4.72v-3.9c0-3.36,0-4,0-4.69s-.18-1.11-.81-1.27a2.59,2.59,0,0,0-.62-.06c-.21,0-.32,0-.32-.2s.13-.2.42-.2c.88,0,2.07.07,2.58.07s1.82-.07,2.56-.07c.26,0,.39,0,.39.2s-.11.2-.34.2a4.78,4.78,0,0,0-.73.06c-.51.11-.66.49-.7,1.27s0,1.33,0,4.69Z"></path>
      <path class="cls-1" d="M216.55,113.44c0,2.84,0,4.37.39,4.77s.81.48,2.28.48c1,0,1.73,0,2.2-.62a2.84,2.84,0,0,0,.49-1.33c0-.19.06-.33.21-.33s.15.11.15.38a20.72,20.72,0,0,1-.28,2.55c-.11.48-.21.6-1.19.6-2.71,0-4-.14-5.48-.14-.43,0-1.61.07-2.37.07-.24,0-.37-.07-.37-.22s.07-.18.3-.18a2.35,2.35,0,0,0,.67-.09c.38-.09.48-.57.55-1.22.09-.93.09-2.68.09-4.72v-3.9c0-3.36,0-4,0-4.69s-.19-1.11-.81-1.27a2.65,2.65,0,0,0-.62-.06c-.21,0-.32,0-.32-.2s.13-.2.41-.2c.89,0,2.07.07,2.58.07s1.83-.07,2.56-.07c.26,0,.4,0,.4.2s-.12.2-.34.2a4.81,4.81,0,0,0-.74.06c-.51.11-.66.49-.69,1.27s0,1.33,0,4.69Z"></path>
      <path class="cls-1" d="M229,109.54c0-3.36,0-4,0-4.69s-.18-1.11-.81-1.27a3.62,3.62,0,0,0-.73-.06c-.21,0-.32,0-.32-.2s.13-.2.41-.2c1,0,2.19.07,2.71.07s4.35,0,4.71,0a6.51,6.51,0,0,0,.81-.13,2,2,0,0,1,.3-.09c.1,0,.12.09.12.2a14.23,14.23,0,0,0-.15,1.44c0,.22-.06,1.2-.1,1.46,0,.11-.05.25-.19.25s-.17-.11-.17-.31a2.57,2.57,0,0,0-.11-.8c-.13-.4-.32-.67-1.26-.8-.32,0-2.3-.09-2.67-.09-.1,0-.14.07-.14.22v5.61c0,.16,0,.24.14.24.41,0,2.57,0,3,0s.73-.11.9-.33.21-.29.3-.29.14,0,.14.18-.1.48-.16,1.61c0,.45-.07,1.33-.07,1.49s0,.42-.17.42-.17-.09-.17-.2a6.54,6.54,0,0,0-.08-.8c-.09-.44-.35-.77-1-.86-.36-.05-2.22-.07-2.67-.07-.1,0-.12.09-.12.22v1.75c0,.76,0,2.8,0,3.44,0,1.53.34,1.86,2.26,1.86a4.05,4.05,0,0,0,1.77-.27c.49-.26.72-.73.85-1.64,0-.24.08-.33.21-.33s.15.18.15.4a19.14,19.14,0,0,1-.25,2.46c-.13.58-.3.58-1,.58-2.85,0-4.11-.14-5.22-.14-.43,0-1.62.07-2.37.07-.25,0-.38-.07-.38-.22s.08-.18.3-.18a2.38,2.38,0,0,0,.68-.09c.38-.09.47-.57.55-1.22.09-.93.09-2.68.09-4.72Z"></path>
      <path class="cls-1" d="M244.9,117.76a9.88,9.88,0,0,1-.14-12.6,7.49,7.49,0,0,1,6-2.35,16.11,16.11,0,0,1,2.73.22c.72.11,1.32.31,1.89.38.2,0,.28.13.28.26s-.06.45-.09,1.22,0,2-.06,2.39-.06.51-.23.51-.19-.17-.19-.48a3.39,3.39,0,0,0-.73-2,5.06,5.06,0,0,0-3.82-1.38,4.47,4.47,0,0,0-3.54,1.38c-1.38,1.48-1.73,3.59-1.73,5.74,0,5.27,3.4,7.88,5.93,7.88,1.67,0,2.69-.22,3.44-1.24a3.86,3.86,0,0,0,.64-1.46c.06-.35.1-.44.25-.44s.17.15.17.33a24.47,24.47,0,0,1-.42,3,.76.76,0,0,1-.49.64,9.46,9.46,0,0,1-3.39.51A8.5,8.5,0,0,1,244.9,117.76Z"></path>
      <path class="cls-1" d="M265.47,104.36l-2.81.09c-1.09,0-1.54.15-1.83.64a3.18,3.18,0,0,0-.32.78c0,.17-.09.26-.2.26s-.17-.11-.17-.35.35-2.37.39-2.55.12-.42.23-.42.34.22.81.26a15.78,15.78,0,0,0,1.88.12h7.46a6.76,6.76,0,0,0,1.8-.23c.14,0,.16.14.16.47s-.06,2-.06,2.57c0,.22-.06.35-.17.35s-.19-.11-.21-.44l0-.24c0-.58-.54-1.2-2.22-1.24l-2.37-.07v9.08c0,2,0,3.79.09,4.75.06.62.17,1.1.74,1.19a6,6,0,0,0,1,.09c.21,0,.3.07.3.18s-.15.22-.36.22c-1.24,0-2.43-.07-3-.07s-1.61.07-2.37.07c-.24,0-.37-.07-.37-.22s.07-.18.3-.18a2.43,2.43,0,0,0,.68-.09c.37-.09.48-.57.54-1.22.1-.93.1-2.68.1-4.72Z"></path>
      <path class="cls-1" d="M279.71,109.54c0-3.36,0-4,0-4.69s-.23-1.13-.64-1.24a2.19,2.19,0,0,0-.68-.09c-.19,0-.3,0-.3-.22s.15-.18.45-.18c.72,0,1.9.07,2.45.07s1.58-.07,2.3-.07c.24,0,.39,0,.39.18s-.11.22-.3.22a3.07,3.07,0,0,0-.57.06c-.5.11-.65.49-.69,1.27s0,1.33,0,4.69v3.9c0,2.15,0,3.9.08,4.86.05.59.18,1,.75,1.08a6,6,0,0,0,1,.09c.21,0,.3.07.3.18s-.15.22-.36.22c-1.24,0-2.43-.07-2.94-.07s-1.61.07-2.37.07c-.24,0-.37-.07-.37-.22s.07-.18.3-.18a2.43,2.43,0,0,0,.68-.09c.37-.09.48-.46.54-1.11.1-.93.1-2.68.1-4.83Z"></path>
      <path class="cls-1" d="M289.35,111.49c0-3.78,2.13-8.68,7.78-8.68,4.69,0,7.61,3.21,7.61,8.29s-3,9.08-7.8,9.08C291.54,120.18,289.35,115.42,289.35,111.49Zm12.75.43c0-5-2.43-8-5.52-8-2.16,0-4.63,1.42-4.63,6.94,0,4.61,2.17,8.26,5.78,8.26C299.05,119.07,302.1,118.32,302.1,111.92Z"></path>
      <path class="cls-1" d="M313.2,116.86c0,1.72.28,2.3.66,2.46a2.63,2.63,0,0,0,1,.15c.2,0,.32,0,.32.18s-.17.22-.43.22c-1.23,0-2-.07-2.34-.07-.17,0-1.05.07-2,.07-.25,0-.42,0-.42-.22s.12-.18.3-.18a2.8,2.8,0,0,0,.85-.11c.49-.18.57-.82.58-2.75l.17-13.11c0-.45.06-.76.25-.76s.38.29.7.69,3.08,3.9,5.83,7.11c1.28,1.51,3.83,4.7,4.15,5h.09l-.19-10c0-1.35-.19-1.77-.64-2a2.68,2.68,0,0,0-1-.13c-.22,0-.3-.07-.3-.2s.21-.2.49-.2c1,0,1.88.07,2.28.07.21,0,.92-.07,1.84-.07.25,0,.44,0,.44.2s-.11.2-.34.2a2,2,0,0,0-.57.06c-.52.18-.67.65-.69,1.89l-.21,14c0,.49-.07.68-.24.68s-.44-.24-.64-.48c-1.19-1.33-3.6-4.23-5.56-6.52s-4.14-5.16-4.48-5.58H313Z"></path>
      <rect class="cls-1" y="50.38" width="331.35" height="1.56"></rect>
      <polygon class="cls-2" points="218.48 48.09 264.08 48.09 250.57 35.91 213.14 35.91 218.48 48.09"></polygon>
      <polygon class="cls-2" points="167.64 48.09 213.34 48.09 208.51 35.91 167.64 35.91 167.64 48.09"></polygon>
      <polygon class="cls-2" points="324.18 48.09 271.64 48.09 256.62 35.91 287.79 35.91 324.18 48.09"></polygon>
      <polygon class="cls-2" points="112.68 48.09 67.08 48.09 80.59 35.91 118.02 35.91 112.68 48.09"></polygon>
      <polygon class="cls-2" points="163.52 48.09 117.83 48.09 122.65 35.91 163.52 35.91 163.52 48.09"></polygon>
      <polygon class="cls-2" points="6.98 48.09 59.52 48.09 74.55 35.91 43.37 35.91 6.98 48.09"></polygon>
      <polygon class="cls-1" points="165.03 0 107.65 33.65 221.73 33.65 165.03 0"></polygon>
    </g>
  </g>
</svg>
