<svg id="Layer_1" data-name="Layer 1" xmlns="http://www.w3.org/2000/svg" xmlns:xlink="http://www.w3.org/1999/xlink" viewBox="0 0 269.65 50"><defs><style>.cls-1{fill:#174772;}.cls-2{fill:#9a090d;}.cls-3{fill:url(#linear-gradient);}.cls-4{fill:url(#linear-gradient-2);}</style><linearGradient id="linear-gradient" x1="14.38" y1="45.77" x2="39.63" y2="20.52" gradientTransform="translate(31.35 -9.39) rotate(45)" gradientUnits="userSpaceOnUse"><stop offset="0" stop-color="#ccc"/><stop offset="0.25" stop-color="#f2f2f2"/><stop offset="0.76" stop-color="#f2f2f2"/><stop offset="1" stop-color="#bfbfbf"/></linearGradient><linearGradient id="linear-gradient-2" x1="4.27" y1="35.65" x2="29.52" y2="10.4" gradientTransform="translate(21.23 -5.2) rotate(45)" xlink:href="#linear-gradient"/></defs><title>Chesapeake logo horizontal</title><path class="cls-1" d="M67.8,27.51a9,9,0,0,1-3.49-3.35,9.36,9.36,0,0,1-1.26-4.83,9.21,9.21,0,0,1,1.27-4.82,9,9,0,0,1,3.51-3.35,10.26,10.26,0,0,1,5-1.21,10.48,10.48,0,0,1,4.1.78A8.45,8.45,0,0,1,80.05,13l-2.19,2.06A6.39,6.39,0,0,0,73,12.92a6.8,6.8,0,0,0-3.36.82A5.92,5.92,0,0,0,67.3,16a6.52,6.52,0,0,0-.84,3.31,6.49,6.49,0,0,0,.84,3.31,5.78,5.78,0,0,0,2.32,2.28,6.8,6.8,0,0,0,3.36.83,6.39,6.39,0,0,0,4.88-2.17l2.19,2.09a8.47,8.47,0,0,1-3.15,2.27,11,11,0,0,1-9.1-.43Z"/><path class="cls-1" d="M102.13,10.21V28.46H98.74V20.64H89.3v7.82H85.91V10.21H89.3v7.53h9.44V10.21Z"/><path class="cls-1" d="M123.33,25.62v2.84H109.64V10.21H123v2.84H113v4.74h8.81v2.79H113v5Z"/><path class="cls-1" d="M131.29,28.12a8.48,8.48,0,0,1-3.11-1.59l1.17-2.64a9,9,0,0,0,2.75,1.45,9.86,9.86,0,0,0,3.27.56,5.61,5.61,0,0,0,3-.65,2,2,0,0,0,1-1.72,1.65,1.65,0,0,0-.56-1.29,4,4,0,0,0-1.42-.8c-.57-.19-1.35-.4-2.35-.65a27.23,27.23,0,0,1-3.37-1,5.63,5.63,0,0,1-2.22-1.55,4.22,4.22,0,0,1-.92-2.86,4.88,4.88,0,0,1,.82-2.75,5.55,5.55,0,0,1,2.47-2,10,10,0,0,1,4.06-.73,13.4,13.4,0,0,1,3.28.41,9.12,9.12,0,0,1,2.79,1.2l-1.06,2.64a10.43,10.43,0,0,0-2.51-1.07,9.11,9.11,0,0,0-2.53-.37,5.27,5.27,0,0,0-3,.68,2.09,2.09,0,0,0-1,1.8,1.64,1.64,0,0,0,.56,1.28,4,4,0,0,0,1.42.78c.58.19,1.36.41,2.35.65a24.43,24.43,0,0,1,3.34,1,5.66,5.66,0,0,1,2.22,1.55,4.06,4.06,0,0,1,.93,2.82,4.77,4.77,0,0,1-.82,2.73,5.62,5.62,0,0,1-2.49,2,10.25,10.25,0,0,1-4.07.73A13.89,13.89,0,0,1,131.29,28.12Z"/><path class="cls-1" d="M160.56,24.23h-9.13l-1.8,4.23h-3.49l8.21-18.25h3.34l8.24,18.25h-3.55Zm-1.12-2.66-3.44-8-3.42,8Z"/><path class="cls-1" d="M182.5,11a6.06,6.06,0,0,1,2.7,2.24,6.32,6.32,0,0,1,.94,3.47,6.32,6.32,0,0,1-.94,3.45,6,6,0,0,1-2.7,2.26,10.11,10.11,0,0,1-4.13.78h-4.12v5.27h-3.39V10.21h7.51A10.11,10.11,0,0,1,182.5,11Zm-.93,8.39a3.25,3.25,0,0,0,1.15-2.68A3.27,3.27,0,0,0,181.57,14a5.22,5.22,0,0,0-3.36-.94h-4v7.25h4A5.16,5.16,0,0,0,181.57,19.38Z"/><path class="cls-1" d="M205.82,25.62v2.84H192.13V10.21h13.33v2.84h-9.94v4.74h8.81v2.79h-8.81v5Z"/><path class="cls-1" d="M224.05,24.23h-9.13l-1.8,4.23h-3.49l8.21-18.25h3.34l8.24,18.25h-3.55Zm-1.13-2.66-3.44-8-3.41,8Z"/><path class="cls-1" d="M240.63,20.82l-2.9,3v4.67h-3.39V10.21h3.39v9.36l9-9.36h3.81l-7.66,8.16L251,28.46h-4Z"/><path class="cls-1" d="M269.65,25.62v2.84H256V10.21h13.32v2.84h-9.93v4.74h8.81v2.79h-8.81v5Z"/><path class="cls-2" d="M104.8,39.12V42h4.6v1.49h-4.6v3.65H103V37.63h7v1.49Z"/><path class="cls-2" d="M119.59,37.63h1.77v8h5v1.5h-6.75Z"/><path class="cls-2" d="M137.29,46.66a4.63,4.63,0,0,1-1.84-1.75,5,5,0,0,1,0-5,4.65,4.65,0,0,1,1.84-1.76,5.78,5.78,0,0,1,5.25,0,4.77,4.77,0,0,1,1.84,1.75A4.84,4.84,0,0,1,145,42.4a4.89,4.89,0,0,1-.66,2.52,4.74,4.74,0,0,1-1.84,1.74,5.7,5.7,0,0,1-5.25,0Zm4.34-1.34a3.14,3.14,0,0,0,1.2-1.2,3.65,3.65,0,0,0,0-3.44,3,3,0,0,0-1.2-1.2,3.64,3.64,0,0,0-3.43,0,3,3,0,0,0-1.2,1.2,3.66,3.66,0,0,0,0,3.44,3.14,3.14,0,0,0,1.2,1.2,3.64,3.64,0,0,0,3.43,0Z"/><path class="cls-2" d="M156.64,46.66a4.69,4.69,0,0,1-1.84-1.75,5.1,5.1,0,0,1,0-5,4.72,4.72,0,0,1,1.84-1.76,5.78,5.78,0,0,1,5.25,0,4.7,4.7,0,0,1,1.84,1.75,4.75,4.75,0,0,1,.67,2.52,4.8,4.8,0,0,1-.67,2.52,4.67,4.67,0,0,1-1.84,1.74,5.7,5.7,0,0,1-5.25,0ZM161,45.32a3.14,3.14,0,0,0,1.2-1.2,3.65,3.65,0,0,0,0-3.44,3,3,0,0,0-1.2-1.2,3.64,3.64,0,0,0-3.43,0,3,3,0,0,0-1.2,1.2,3.66,3.66,0,0,0,0,3.44,3.14,3.14,0,0,0,1.2,1.2,3.64,3.64,0,0,0,3.43,0Z"/><path class="cls-2" d="M180.4,47.16l-1.94-2.79h-2.52v2.78h-1.77V37.63h3.92a5.37,5.37,0,0,1,2.16.41,3.07,3.07,0,0,1,1.4,1.17,3.25,3.25,0,0,1,.49,1.81,3.19,3.19,0,0,1-.52,1.85,3.09,3.09,0,0,1-1.5,1.16l2.19,3.13Zm-.64-7.54a2.68,2.68,0,0,0-1.75-.49h-2.07v3.8H178a2.68,2.68,0,0,0,1.75-.5,1.95,1.95,0,0,0,0-2.81Z"/><path class="cls-2" d="M192,37.63h1.77v9.53H192Z"/><path class="cls-2" d="M212.71,37.63v9.53h-1.45L206,40.71v6.45h-1.75V37.63h1.45L211,44.09V37.63Z"/><path class="cls-2" d="M229.67,42.29h1.67v3.8a5.15,5.15,0,0,1-1.71.89,6.57,6.57,0,0,1-2,.32,5.32,5.32,0,0,1-2.62-.64,4.67,4.67,0,0,1-1.84-1.74,4.89,4.89,0,0,1-.67-2.52,4.84,4.84,0,0,1,.67-2.52A4.7,4.7,0,0,1,225,38.13a5.55,5.55,0,0,1,2.65-.63,5.84,5.84,0,0,1,2.18.39,4.41,4.41,0,0,1,1.65,1.16l-1.12,1.09a3.57,3.57,0,0,0-2.63-1.09,3.75,3.75,0,0,0-1.79.42,3,3,0,0,0-1.22,1.19,3.6,3.6,0,0,0,0,3.45,3.13,3.13,0,0,0,1.22,1.2,3.64,3.64,0,0,0,1.78.44,3.9,3.9,0,0,0,2-.49Z"/><rect class="cls-3" x="9.15" y="29.57" width="35.71" height="7.15" rx="0.61" ry="0.61" transform="translate(-15.52 28.8) rotate(-45)"/><rect class="cls-1" x="17.26" y="31.56" width="35.71" height="7.1" rx="0.61" ry="0.61" transform="translate(-14.55 35.12) rotate(-45)"/><rect class="cls-1" x="-2.95" y="11.33" width="35.71" height="7.15" rx="0.61" ry="0.61" transform="translate(-6.17 14.9) rotate(-45)"/><rect class="cls-4" x="-0.96" y="19.45" width="35.71" height="7.15" rx="0.61" ry="0.61" transform="translate(-11.33 18.69) rotate(-45)"/><rect class="cls-2" x="7.16" y="21.44" width="35.71" height="7.15" rx="0.61" ry="0.61" transform="translate(-10.36 25.02) rotate(-45)"/></svg>