<svg id="Layer_1" data-name="Layer 1" xmlns="http://www.w3.org/2000/svg" viewBox="0 0 505.48 505.48"><defs><style>.cls-1{stroke:#fff;stroke-width:15px;}.cls-1,.cls-2,.cls-4{stroke-miterlimit:10;}.cls-2,.cls-3,.cls-4,.cls-5{fill:#fff;}.cls-2,.cls-4{stroke:#f9f8f7;}.cls-3{fill-rule:evenodd;}.cls-4,.cls-5{isolation:isolate;}.cls-4{font-size:40px;font-family:Papyrus;letter-spacing:0.25em;}.cls-5{font-size:100px;font-family:Hobeaux-Semibold, Hobeaux;font-weight:600;letter-spacing:0.05em;}.cls-6{fill:#4e392c;}</style></defs><title>logo-alt</title><path d="M255.75,0C116.17,0,3,113.16,3,252.74S116.17,505.48,255.75,505.48,508.49,392.32,508.49,252.74,395.33,0,255.75,0ZM63.29,109.32l-3.54,1.73,1.26-3.6h3.12Z" transform="translate(-3.01 0)"/><g id="outline"><circle class="cls-1" cx="252.74" cy="252.74" r="232.86"/><path class="cls-1" d="M412.62,171.76" transform="translate(-3.01 0)"/><path class="cls-1" d="M14.67,41.49" transform="translate(-3.01 0)"/><path d="M346.72,488.35q-2.89-13.47-5.77-27l7.42-3.5h7.13l4,12.5a7.86,7.86,0,0,0,3,.79c1.54.09,2.32-.36,4.16-.53a13.92,13.92,0,0,1,3.53.14l6.29,4-10.66,5.56L351.21,487Z" transform="translate(-3.01 0)"/><polygon points="364.07 472.19 365.24 471.99 365.66 472.54 366.31 472.57 365.45 473.33 365.19 472.57 363.74 473.16 364.07 472.19"/><polygon points="366.31 471.99 366.93 471.66 366.77 472.35 366.31 471.99"/><polygon points="366.31 474.73 365.03 475.82 364.37 475.82 363.96 475.66 364.43 475.01 365.3 474.73 366.31 474.73"/><polygon points="363.74 473.91 363.12 474.26 363.43 474.41 364.18 474.16 365.14 473.79 363.74 473.91"/><polygon points="338.66 486.9 338.66 485.28 339.24 485.28 339.74 485.6 340.45 486.09 340.16 486.57 338.66 486.9"/><polygon points="339.42 483.9 339.42 482.78 339.42 482.11 339.42 481.01 338.66 481.19 338.45 481.86 338.24 482.45 338.24 482.94 338.66 483.61 339.42 483.9"/><polygon points="339.33 481.01 339.33 482.13 339.34 482.8 339.34 483.9 340.11 483.71 340.31 483.05 340.52 482.45 340.52 481.96 340.1 481.3 339.33 481.01"/><polygon points="340.82 483.9 341.74 483.9 342.18 483.07 341.68 482.63 340.82 483.9"/></g><path class="cls-2" d="M178.74,91.62l-.06.26c-.07.09-.13.18-.2.26l-.14.32.21.2a.83.83,0,0,1-.33.47l-.45.23-.24.32-.23.18h0l-.64.15-1.54.71-1.51.49-1.1.55a1.08,1.08,0,0,1-.61.12h-.37l-.27.07.11.23a1.91,1.91,0,0,1-.53.36,5.24,5.24,0,0,1-1,.3l.09.06-.37.12h-.17a.81.81,0,0,1-.22,0l-.22.12.05,0-.27.21-1.39.83-.23.16c-.18.09-.31.06-.37-.07l-.09-.19.36-.36-.07-.15.11-.18a2,2,0,0,1-.15-.6,1.07,1.07,0,0,1,.14-.46l-.24-.26L166.38,95l-.18-.26a2.61,2.61,0,0,1,.08-.46h-.35V93.8l-.07-.36v-.32l-.32-.23,0-.26-.14-.16-.11-.31-.21-.3c-.09-.29-.19-.57-.29-.85l-.22-.48v-.78h-.33l-.63-1.15a.42.42,0,0,0,.18-.31l-.37-.5-.27.07a7.37,7.37,0,0,1-.9-1.5,2.09,2.09,0,0,1-.2-.74l-.23-.18-.35-.58-.28-.18-.14.06-.33-.19.15-.31.25-.24.23-.43.59-.51.14-.2.23-.18h.3l.16-.07.06.14h.1l.33.79.2.36a.68.68,0,0,1,.07.28.66.66,0,0,1-.11.24v.26h.1l.17-.1.06.12-.06.11.36.36h0c.07.24.15.48.23.72a3.31,3.31,0,0,0,.35.58l.1.22.29.89-.18.08a1.34,1.34,0,0,0,0,.4.43.43,0,0,0,.5.27l.09.26c.26.55.52,1.11.79,1.66a3.9,3.9,0,0,1,.37,1.29h-.12a.39.39,0,0,0,0,.26l.13.16.28,0,.22.33.15.32v.06c.15.35.29.71.44,1.07l.12.33c-.08.16-.1.27-.07.33s.11.09.28.13l.3.61c.07.22.15.44.22.66a.51.51,0,0,0,.41.32,1.87,1.87,0,0,0,.74-.18,7.14,7.14,0,0,0,.71-.4h.11l.28-.1h.44l.25-.08a.4.4,0,0,0,.17-.35l1.45-.53.87-.41.91-.51H175l.1.23a2.8,2.8,0,0,0,.58-.09,2.3,2.3,0,0,0,.33-.21.36.36,0,0,1,0-.25.68.68,0,0,1,.18-.26h.19a2.47,2.47,0,0,0,.61-.45.79.79,0,0,0,.26.08h.19a1.09,1.09,0,0,1,.71-.75Z" transform="translate(-3.01 0)"/><path class="cls-2" d="M199.41,78v.86l.18.57a1.21,1.21,0,0,1-.1.36.49.49,0,0,0-.17,0,.29.29,0,0,0-.1.15.66.66,0,0,0,0,.28.06.06,0,0,0,0,.06,1.25,1.25,0,0,1,.37.42.25.25,0,0,1,0,.17,1.27,1.27,0,0,0-.21.6l-.23.19.09.06v.08l.23.09V82a2.13,2.13,0,0,1-.16.25l-.15.51L199,83a.51.51,0,0,0-.32-.08.2.2,0,0,0-.16.25.06.06,0,0,0,0,0c0,.06.11.15.29.27a3.82,3.82,0,0,1-.9,1.43c-.48.52-1,1-1.52,1.48a6.84,6.84,0,0,1-1.27.94l-.21.12a8.33,8.33,0,0,1-1.05.49h0l-.46.12-.27.13-.51-.11-.28.24a.81.81,0,0,1-.27.25H192a1,1,0,0,0-.29-.25.81.81,0,0,0-.34-.08,3,3,0,0,1-1,.72.48.48,0,0,1-.29,0,.73.73,0,0,1-.29.07h-.88l-.68.26-.34-.12-.36.17-.34.07h-.52l-1.58.21-.52-.17H184l-.74-.34a1,1,0,0,0-.59.07l-.44-.22a1,1,0,0,0,0-.35c-.08-.23-.43-.28-1-.15v-.09h-.15l-.23-.19-.17-.08-.09-.24-.49-.56-.13-.21c-.19-.29-.37-.59-.56-.89a3.52,3.52,0,0,1-.29-1V85c-.06-.21-.11-.42-.16-.63,0-.54,0-1.08.05-1.63v-.28a1.8,1.8,0,0,1,.48-1.14v-.14c.12-.29.25-.57.38-.86h.19a.24.24,0,0,0,.2-.22v-.54l.13-.36a1,1,0,0,1,.23-.49l.33-.29c.06-.17.13-.33.19-.49l.61-.75a4.32,4.32,0,0,1,.72-.76h.22l.21-.47.21-.13,2.06-1.61a1.15,1.15,0,0,1,.46-.25,1.9,1.9,0,0,1,.67-.08l.18-.13v-.24l.37-.07h.28l.56-.34,1-.27.44-.24.43-.08.38-.14h.48l.78-.1.62.1h1.68l.19.08.33.08v.11h0a.31.31,0,0,0,0,.19c0,.06.13.11.34.15v-.1a.48.48,0,0,1,.51.12,1,1,0,0,0,.15.33,1.34,1.34,0,0,0,.31.17.79.79,0,0,1,.31-.2.73.73,0,0,1,.61.09l.28.19.55.24.13.25.39.25.16.29a.71.71,0,0,0-.09.45s0,.08.06.1l.94.5.12.23.35.48a1.41,1.41,0,0,1,0,.29l-.16.14v.12h.22l.12.25A1.26,1.26,0,0,0,199.41,78Zm-2.48-1.37c-.1-.33-.39-.47-.87-.41-.09-.2-.17-.4-.25-.6l-.85-.68-.2-.32h-.17l-.29-.18-.73-.43-.6-.16-.62-.22h-.26l-.22-.21-.25.08a1.1,1.1,0,0,1-.57,0l-1.26-.22-1.14.21-.84.12-.75.27-.59.19-.57.36-.53.25-.46.48h-.32l-.28.19-1.14,1.14-.3.16a1.58,1.58,0,0,1-.42.73l-.29.24L181.4,79l-.15.2a3.32,3.32,0,0,0-.5,1.4l-.05.26-.2.14v.27l.06.62-.1.21v.25l-.51.12a.71.71,0,0,1,0,.29,1,1,0,0,1-.18.22v.13q.54.09.63.33c.09.26.17.52.26.78a6.82,6.82,0,0,0,.59,1l.08.28.6.45c-.15.18-.21.32-.17.42a.25.25,0,0,0,.18.15.42.42,0,0,0,.31,0h.1l.13-.06.62.34c0,.17-.07.27,0,.31l.15.14h.1l.63.26.74.1,1.1.37.71-.12.48.23h1.36l1.14.07.33-.13,2.23-.4.35-.09.26-.1.42-.26,1.19-.3.47-.25.79-.61.3-.19.21.08c.22-.14.34-.25.34-.33v-.39c.29-.44.59-.87.89-1.31.09-.32.17-.64.26-1l.09-.38h.16l.06-.33L197.6,82v-.22l-.21-.94a1.19,1.19,0,0,1,.07-.49V80l.14-.16a2.55,2.55,0,0,0-.07-.73,1.36,1.36,0,0,1-.42-.56h0c-.09-.37-.17-.73-.26-1.1l-.12-.34a.65.65,0,0,0,.2-.54Z" transform="translate(-3.01 0)"/><path class="cls-2" d="M222.24,79.13a.62.62,0,0,1,0,.38.29.29,0,0,1-.08.24c-.08.08-.06.36-.08.55a.41.41,0,0,1-.3.21l-.6.15-1.34.72-1.54.38-1.59.64a2.66,2.66,0,0,1-.63.17,10.41,10.41,0,0,1-1.57.22h-.29a.53.53,0,0,0-.65-.37h0a.81.81,0,0,0-.44.33l.08.14c-.81-.06-1.63-.1-2.45-.14l-.1-.15-.13.08a1.49,1.49,0,0,1-.8-.2l-.73-.32-.51-.19-.25-.22L207,81.11l-.09-.29c.16,0,.23-.11.2-.2a.17.17,0,0,0-.16-.15,4.34,4.34,0,0,0-.51,0h-.28l-.07-.29a1.06,1.06,0,0,1-.39-.13,2,2,0,0,1-.34-.31l.08-.11-.12-.07h-.18l-1.29-1.81.11-.11v-.12c-.11-.21-.22-.42-.34-.63l-.19-.67a1.53,1.53,0,0,1,0-.9h0c.1,0,.17-.14.21-.36a1,1,0,0,1-.23-.36.53.53,0,0,1,0-.35c.14-.57.28-1.14.43-1.72l.39-.38a1.85,1.85,0,0,1,.11-.45l.24-.25.2-.28.65-.17.33-.72a2.16,2.16,0,0,1,.75-.69l.86-.52.56-.4.46-.39,1.16-.66a5.49,5.49,0,0,1,1-.5l.85-.17,2.2-.67.75-.16h.3l.47.08.65-.14.6.14.3-.08a.92.92,0,0,1,.52,0,.42.42,0,0,1,.26.33.53.53,0,0,1-.2.47l-.4.31-.15.19a.44.44,0,0,1-.22.1.49.49,0,0,1-.17,0l-1.09-.24H215v0a.53.53,0,0,0-.23-.24h-.17l-.68.23h-1l-1.1.29-.63.08H211a3.12,3.12,0,0,0-.74.27l-.76.49-.39.1-.51.4-.43.25-.77.64h-.28l-.3.35.1.35a4,4,0,0,0-.86.79c-.26.41-.53.82-.79,1.24l-.18.19.12.06V73a1.68,1.68,0,0,1-.07.5.65.65,0,0,1-.26.26l.23.13.06.23-.06.48c.11.48.21,1,.32,1.43v.29l.19.26.44.48v.19l-.25.11c.06.06.11.13.17.2l.62.42.4.6.22.17.13.23.66.59.19.2.26.14c.15.16.31.31.47.46l.25.09a1.56,1.56,0,0,1,.35.27h.24a1.37,1.37,0,0,1,.48.38h.25l1,.19h.39l.41.24a3.76,3.76,0,0,0,1.11.08h1.75a3.23,3.23,0,0,0,.69-.07h.21l.91-.24,1.39-.24.57-.4,1-.42.46-.38.87-.48.58-.51h.1a.24.24,0,0,1,.26.22Z" transform="translate(-3.01 0)"/><path class="cls-2" d="M243,77.91v.14l-.45.42c-.15.24-.3.48-.44.72h-.4l-.24.06V79l-.16-.28v-.45a1.66,1.66,0,0,1-.25-.56h-.19l-.12-.25c-.16-.25-.32-.51-.49-.76l-.1-.4-.7-1a1,1,0,0,1-.15-.47v-.19a.86.86,0,0,1-.37-.26,3.88,3.88,0,0,1-.63-1.1l-.44-.15c-.05.35-.17.54-.39.56h0l-1.3-.1-.45.07h-.34l-1.73.41-1,.07-.54.2-.44-.09h-.34a1.61,1.61,0,0,1-.24.28.67.67,0,0,1-.28.1h-.07l-1.09.06-.39.14-.53.1c-.17.06-.34.35-.49.86a1.76,1.76,0,0,1-.16.49l-.13.06a8.38,8.38,0,0,1-.67,1.81v.25l-.15.28c-.15.51-.3,1-.46,1.52,0,.15-.19.28-.49.39v.18a1.8,1.8,0,0,1-.39.08,1.33,1.33,0,0,1-.76-.14c.11-.29.23-.57.35-.86l.27-.46.21-.47a2.39,2.39,0,0,0,.13-.28l.14-.24v-.09c.32-.1.47-.26.43-.5v-.28l.32-.48c.12-.39.24-.78.37-1.17.08-.15.16-.3.25-.45l.24-.76c.1-.27.2-.53.31-.79s.25-.55.38-.83l.44-.52a.13.13,0,0,0,0-.12.37.37,0,0,0-.15-.2,4,4,0,0,0,.29-.29.8.8,0,0,0,.15-.29l-.18-.21.12-.25c.05-.19.09-.38.13-.57a1.75,1.75,0,0,1,.28-.33V70.2c.13-.47.27-.94.4-1.41s.21-.76.31-1.15a2.56,2.56,0,0,1,.48-.81l-.13-.24v-.33a1.94,1.94,0,0,1,.09-.48.38.38,0,0,1,.22-.21,2.23,2.23,0,0,1,.43-.16l.06-.18c-.06-.11-.11-.23-.17-.34a.62.62,0,0,1-.07-.19.23.23,0,0,1,.12-.25l.82-.62.14-.38a1.11,1.11,0,0,1,.69-.42c.07.16.14.31.2.46h.16v.13l.22.33c.14.13.28.26.41.4s.37.49.56.74l.32.62.37.49-.31.12a.3.3,0,0,0,.14.22c.32.13.48.27.5.41v.21l.32.26.39.49.21.27v.09l-.08.23.07.23.2.2.39.25.51.78.26.34v.28q.53.36.54.57a.43.43,0,0,1,0,.16l.27.22.63.84a1.15,1.15,0,0,1,.14.17l.16.23,0,.23a3.28,3.28,0,0,1,.27.38,1.65,1.65,0,0,1,.07.32c.29.11.45.25.46.43v.55a.44.44,0,0,1,.06.16l.52.21c.06.07.12.13.17.2l.09.21c0,.12.19.23.43.33v.27l.44.38.45.61c.07.07.14.15.22.22a1.45,1.45,0,0,1,.25.36A.67.67,0,0,1,243,77.91Zm-5.48-5.63-.12-.08v-.09l-.06-.11h-.25a2,2,0,0,1-.31-.86v-.23l-.48-.08-.71-1h-.17l-.95-1.33a.9.9,0,0,1,.08-.28l-.11-.29-.62-.22c-.36-.52-.73-1-1.09-1.57a2.56,2.56,0,0,0-.66-.47l-.14.13a2.88,2.88,0,0,1-.11.49h-.1a4.85,4.85,0,0,1-.16.63,2.48,2.48,0,0,1-.28.36.86.86,0,0,0-.31.59v.28c-.14.41-.29.82-.43,1.22a2.4,2.4,0,0,1-.12.38,1.8,1.8,0,0,1-.08.21.37.37,0,0,1-.07.14.61.61,0,0,1-.12.16l-.07.25a.85.85,0,0,1-.13.31.52.52,0,0,1-.26.1v.27a2.24,2.24,0,0,1-.09.89,1.45,1.45,0,0,1-.46.58l.26.3a.36.36,0,0,0-.21.11.46.46,0,0,0-.1.25v.3h.22l.42.06.31-.09.3.06v-.1h.21l1.61-.09,1-.18.42.12.12-.12.26-.06.69-.15L235,73v.12h.1c.08,0,.16-.08.26-.21l.33-.06,1-.18.4-.08.22-.12A1.3,1.3,0,0,0,237.55,72.28Z" transform="translate(-3.01 0)"/><path class="cls-2" d="M260.5,76.84l-.15.22-.28.16-.24.24.12.26c-.21.21-.37.31-.48.31H259l-.34.21-.28.08h0l-.63-.11-1.66.07-1.57-.09-1.2.09a1,1,0,0,1-.59-.13l-.33-.16h-.27v.25a2.16,2.16,0,0,1-.61.14,5.56,5.56,0,0,1-1-.1v.1h-.37a.49.49,0,0,1-.17,0,.47.47,0,0,1-.19-.12h-.24v.07l-.32.08-1.57.24-.27.06c-.2,0-.3-.07-.31-.21v-.21l.47-.2v-.16l.16-.13a2.1,2.1,0,0,1,.09-.61,1.07,1.07,0,0,1,.3-.37l-.11-.33v-1.2l-.06-.31.24-.39a2.9,2.9,0,0,1-.29-.19L248,74l.08-.35.13-.3c-.06-.11-.13-.22-.2-.33l.06-.26-.07-.2v-.33a.59.59,0,0,0-.08-.36L248,71v-.53l.21-.47.07-.26-.31-.1a11.47,11.47,0,0,0-.14-1.3.42.42,0,0,0,.28-.22l-.15-.6h-.26a7.86,7.86,0,0,1-.25-1.74,2.37,2.37,0,0,1,.09-.75l-.13-.26a3.9,3.9,0,0,0-.11-.67l-.18-.28H247a3.46,3.46,0,0,1-.22-.31l.25-.22.31-.13.37-.31.73-.24.2-.13.27-.08.29.08h.16v.15l.08.07V64a.71.71,0,0,1,0,.29,1.07,1.07,0,0,1-.19.18l-.07.25.08.06h.19v.14l-.09.08.18.47h0a3.78,3.78,0,0,1-.05.75,1.61,1.61,0,0,0,.1.66V67a4.17,4.17,0,0,1-.07.93h-.19a1.9,1.9,0,0,0-.11.39.43.43,0,0,0,.36.45V69c0,.61.05,1.23.08,1.84a4,4,0,0,1-.14,1.33l-.1-.07a.55.55,0,0,0-.12.24l.06.2.27.06.08.38v.35h0v1.52c-.13.11-.19.2-.19.27s.07.13.2.23,0,.45,0,.68a1.62,1.62,0,0,1,0,.69.5.5,0,0,0,.25.45,1.56,1.56,0,0,0,.74.12l.79-.09.08.09h.29l.4.16h.26a.41.41,0,0,0,.28-.25l1.51.06h.95l1-.13h.17v.24a2.16,2.16,0,0,0,.57.14,1.51,1.51,0,0,0,.37-.07.42.42,0,0,1,.07-.24.87.87,0,0,1,.26-.16h.2a2.12,2.12,0,0,0,.71-.18.87.87,0,0,0,.21.17.31.31,0,0,0,.19,0,1.06,1.06,0,0,1,.93-.42Z" transform="translate(-3.01 0)"/><path class="cls-2" d="M290.78,79.73a1.34,1.34,0,0,1-.53.75.94.94,0,0,1-.57.26l-.16-.08-.23.11a.79.79,0,0,1-.45.13l-.19-.05.07-.29c.06-.21.13-.43.2-.64a1.1,1.1,0,0,0,0-.48l.44-1.37v-.63c.05-.46.09-.91.14-1.37v-.48c.06-.39.13-.77.2-1.16s0-.51.07-.77.07-.3.11-.44c0-.51,0-1,.05-1.53l.2-.27-.2-.12L290,71c0-.25-.05-.49-.07-.73l.12-.65a1.11,1.11,0,0,0-.08-.3h-.33l-.12.13v.34l-.8.83-.06.25-.24.16c-.06.09-.11.19-.17.29l-.21.22a1.76,1.76,0,0,1-.13.41l-.44.64-.08.25a2.18,2.18,0,0,0-.64.49l-.52.81-1.35,1.64c-.32.42-.64.85-.95,1.28l-.23.25-.8.55c-.1.06-.15.12-.16.18v.06a2.16,2.16,0,0,1,0,.36v.12a.52.52,0,0,0-.34.09,1,1,0,0,0-.23.3,3.55,3.55,0,0,1-.32.53.63.63,0,0,1-.3.21,2.1,2.1,0,0,1-.5.09,3,3,0,0,1-.31-.48,1.09,1.09,0,0,1,0-.36l-.09-.1a.4.4,0,0,0-.25-.42l-.11.08-.15-.32c-.07-.27-.13-.54-.2-.8s-.15-.24-.22-.36a4.73,4.73,0,0,1-.19-.75l-.26-.46a1,1,0,0,0,.21-.51.27.27,0,0,0,0-.26l-.36-.36q-.62-1.5-1.26-3c-.1-.26-.2-.53-.31-.79h0l.1-.31-.16-.4v-.36l-.28.09c0-.08-.08-.17-.13-.25a7.3,7.3,0,0,1-.41-.9c-.05-.16-.12-.4-.19-.72a.39.39,0,0,1-.4-.23c-.07.13-.15.25-.22.37h-.2l-.06.09a.8.8,0,0,1,.13.5l-.15.88a.75.75,0,0,1-.06.33.37.37,0,0,1-.08.18l-.2.22c.09.2.17.4.25.6l-.07.29a8.15,8.15,0,0,1-.1.83,2.27,2.27,0,0,1-.11.49c-.05.84-.1,1.69-.14,2.53l-.18.36a1.48,1.48,0,0,1,.11.69v.24a.66.66,0,0,0-.43.11,1.12,1.12,0,0,0-.17.46l.44.19v.53a.52.52,0,0,1-.14.42l-1,.52-.47.32H273l-.25-.06V78.6l.27-.53.09-1.14.3-1.38v-1l.08-.36v-.3a.52.52,0,0,0,.25-.36l.14-.06a.72.72,0,0,0-.06-.29c0-.1-.09-.2-.13-.3V72.7a.62.62,0,0,1,.24-.37,1.22,1.22,0,0,1-.17-.61v-.07c.06-.48.12-1,.19-1.43a7.57,7.57,0,0,0,0-1.26v-.25l.41.15a.58.58,0,0,0,.15-.25V68.5l-.56-.09v-.58h.42l.07-.23c0-.14-.1-.26-.34-.37,0-.22,0-.43-.07-.65h.12v-.15L274,65.27l.07-.55c-.06-.16-.13-.31-.19-.47s.17-.29.49-.4l.24.07.18-.29.28-.09.62-.35a.79.79,0,0,1,.34-.1l.27.09a.59.59,0,0,0,.05.32.8.8,0,0,0,.29.23,1.35,1.35,0,0,0,0,.29,1.77,1.77,0,0,0,.15.31c.07.12.17.3.29.53l-.14.25c-.05.12-.1.25-.16.37v.15l.38.21c.07.3.15.6.22.9l-.28.34.14.08.08.26a.8.8,0,0,1,.59.49l.33.87c.11.42.23.84.34,1.27-.24.15-.36.29-.37.4l.1.29h.27a.54.54,0,0,1,.27.11.81.81,0,0,1,.11.27l-.26.31c.08.12.16.19.23.19h.15l.14.22a3.46,3.46,0,0,1,.37,1.08c0,.12-.09.23-.13.35l-.12.26.22.14.25.08.24.39.43.53a1.12,1.12,0,0,0,.07.47l.24.26.24.8.25.32.3.79.19.18.32-.23,1-.83.54-.69.5-.66.72-.9,1.58-2.25.55-.59c.08-.24.16-.48.23-.71l.83-1.25.15-.34h.17l.17-.09v-.09l.22-.07v-.2l-.21-.12q.17-.48.33-.54l.26-.05.25-.14a6.36,6.36,0,0,0-.3-.58.73.73,0,0,0,.26-.39.15.15,0,0,0,0-.13l.27-.2.47-.48.84-.46a2.23,2.23,0,0,1,.65-.29l.3.12c-.07.26-.14.51-.2.77l.09.11h.24c.24,0,.35.12.33.24l-.1.45-.16.36-.15-.07-.08.2a1.92,1.92,0,0,0,.11.46c-.11.82-.23,1.65-.34,2.47v.12a.48.48,0,0,1-.15.29l-.41.38a1,1,0,0,0-.09.27.58.58,0,0,0,.17.21.85.85,0,0,0,.31.09v.43c-.11.64-.23,1.27-.35,1.9l.06.87-.12,1.46-.06,1a1.5,1.5,0,0,1-.17.46,1,1,0,0,1,.14.34,3.75,3.75,0,0,1,0,.67,9,9,0,0,1-.1.91Z" transform="translate(-3.01 0)"/><path class="cls-2" d="M312,84.07l-.28.44-.26-.09a.26.26,0,0,0-.21,0l-.37.43-.39.15-.13.09-.42-.16-.57.11h0l-.53-.32h-.07l-1.34-.29-.36-.13-.09-.22a5.93,5.93,0,0,1-.84-.06l-.44-.13h-.3v-.25h-.27l-.46.11-2.33-.5-.38.08a1.4,1.4,0,0,0-.55-.38h-.76l-.66-.29-2.1-.35a6.78,6.78,0,0,1-.84-.45l.17-.24.42-.6.17-.62.24-.53.17-.87.14-.32.48-2.67.18-.67a1.13,1.13,0,0,0,0-.26V74.8l.51.08a1.76,1.76,0,0,0-.15-.44,1.93,1.93,0,0,0-.29-.35v-.21c.08-.28.16-.56.23-.84l.18-1.48.22-.54.1-.22-.25-.12-.06-.27a6.42,6.42,0,0,1,.1-.75l-.11-.27v-.12l.08-.29.13-.12.66.3-.17-.2c-.11-.11-.16-.2-.14-.27a.61.61,0,0,1,.09-.18L300,68.4h-.27a4.87,4.87,0,0,0,.06-.76c0-.13,0-.22-.11-.25l-.46-.28a1.84,1.84,0,0,1,.17-.22,1.22,1.22,0,0,1,.46-.13h.26a3.06,3.06,0,0,1,1-.08h0l1.82.67.85.25.45.24a2.51,2.51,0,0,1,.67,0h.1l1.87.61c.57.1,1.14.19,1.71.3l.62.32h.4v-.13a7.38,7.38,0,0,0,1.33.1,4.21,4.21,0,0,1,.71,0l.25.11a.9.9,0,0,1-.25.33,1.34,1.34,0,0,1-.48.15.61.61,0,0,1-.15.26,1.36,1.36,0,0,1-.43.14,3.12,3.12,0,0,1-1.14,0h-.14l-.66-.2-.58-.07-1.14-.38-.26-.08a1.35,1.35,0,0,0-.65-.36,1.33,1.33,0,0,1-1,0l-.38-.1v-.22h-.26l-.4.06-1.71-.5-.35.32.08.11v.1a1.91,1.91,0,0,1-.07.62l-.29.87v.6l.24.12,1.68.51a1.11,1.11,0,0,1,.46.34h.4a2.44,2.44,0,0,1,.54,0h0l1.32.37.78.2.71.16a1.32,1.32,0,0,0,.39.06,1.15,1.15,0,0,0,.37,0l.91.39h.79l1,.22,1.05.13a.94.94,0,0,1,.3.26l.3-.08a.75.75,0,0,1,.51-.06l.26.09.3,0a1.61,1.61,0,0,1-.1.36l-.39.11-.91.41a.45.45,0,0,1-.28,0h-.05l-.8-.32-1.08-.23-.55-.27-2.25-.37-.37-.13a.42.42,0,0,0-.26-.3h-.16l-.6.08-1.6-.53-.85.09-.53-.27-.51.17L301.31,72l-.14.14-.07.62-.34.58.08.21.13.24c-.09.15-.19.3-.28.46a3.18,3.18,0,0,1,.13.51,1.26,1.26,0,0,1-.13.37l-.12,1.08h0c0,.1-.14.24-.37.42a1,1,0,0,1,.19.68.28.28,0,0,1-.08.15l-.46.59.23.66c-.1.74-.2,1.48-.31,2.22l.36.14,1.49.88h.55a1.34,1.34,0,0,1,.5.3.79.79,0,0,1,.39-.13h0l1,.46.68.08.55.25,1.44.25.38.16.68.2.22.13v-.18h.28l1.12.26h.26l1.44.12h.66A1.26,1.26,0,0,1,312,84.07Z" transform="translate(-3.01 0)"/><path class="cls-2" d="M332.16,91.33a.27.27,0,0,1-.09.12l-.59.19-.71.47-.38-.14h-.24l.05-.21v-.32l.11-.22.05-.21a1.57,1.57,0,0,1,0-.61l-.19-.07V90a6.58,6.58,0,0,0-.13-.89c0-.29,0-.28.07-.41l-.24-1.19a1,1,0,0,1,.06-.49v-.17a.86.86,0,0,1-.23-.39,3.58,3.58,0,0,1-.11-1.26l-.35-.33c-.19.31-.39.43-.59.35h0l-1.1-.64-.44-.13-.31-.16L325,83.94l-1-.38h-.57l-.38-.27-.29-.18a1.35,1.35,0,0,1-.34.17.71.71,0,0,1-.29,0H322l-1-.39h-.42l-.52-.13c-.19,0-.46.18-.82.58l-.34.38h-.15a8,8,0,0,1-1.37,1.36l-.09.23-.25.2L316,86.7c-.09.12-.29.17-.62.15V87A2.74,2.74,0,0,1,315,87a1.32,1.32,0,0,1-.64-.45l.68-.64.44-.3.39-.33.24-.2.22-.17v-.09c.33,0,.54,0,.6-.28l.08-.27.49-.3.83-.91.41-.3.54-.6.61-.58.7-.6.62-.29a.2.2,0,0,0,.09-.09.35.35,0,0,0-.06-.24,3.12,3.12,0,0,0,.39-.15,1,1,0,0,0,.26-.2l-.08-.26.21-.18.36-.47a2.76,2.76,0,0,1,.39-.18v-.12l1-1.11.76-.92a2.76,2.76,0,0,1,.78-.53v-.28l.17-.28a2,2,0,0,1,.29-.4.38.38,0,0,1,.29-.1h.46l.13-.15v-.37a.74.74,0,0,1,0-.21.25.25,0,0,1,.22-.17l1-.23.29-.28a1,1,0,0,1,.81-.09v.5h.15l-.09.11.06.39c.08.18.15.35.22.53l.17.84v.69c.05.21.09.41.14.61h-.34a.28.28,0,0,0,0,.25c.24.26.34.45.29.58l-.09.2.18.37c.06.2.11.41.16.61s.05.22.08.33v.09l-.17.18v.24a.74.74,0,0,0,.1.27l.25.39.15.92a1.6,1.6,0,0,0,.1.42l-.1.26c.22.36.31.61.26.74s0,.06-.1.14l.16.3.23,1a.74.74,0,0,1,0,.21l.06.28.06.27a3.4,3.4,0,0,1,.09.46,1.94,1.94,0,0,1-.07.33c.23.22.31.41.25.58h-.05l-.22.45v.17l.39.41.08.26v.23a.75.75,0,0,0,.27.47l-.1.25.25.54c.05.25.1.49.16.74a.91.91,0,0,0,.11.3,1.26,1.26,0,0,1,.08.43A.73.73,0,0,1,332.16,91.33Zm-2.72-7.41-.08-.13.08-.06V83.6l-.24-.08a2,2,0,0,1,.07-.92l.05-.23-.41-.27-.21-1.25-.17-.06c-.1-.53-.19-1.05-.29-1.58l.19-.22v-.31l-.48-.46c-.12-.63-.23-1.25-.35-1.88a2.39,2.39,0,0,0-.41-.71l-.18.06c-.11.13-.21.27-.31.4h-.11a4,4,0,0,1-.41.51,1.59,1.59,0,0,1-.41.21.85.85,0,0,0-.52.41l-.14.25-.9.93-.27.29-.16.16a.4.4,0,0,1-.12.1l-.16,0-.17.2a1,1,0,0,1-.24.23.71.71,0,0,1-.29,0l-.1.25a2.35,2.35,0,0,1-.47.77,1.38,1.38,0,0,1-.66.33l.12.38a.33.33,0,0,0-.24,0,.55.55,0,0,0-.19.18l-.17.26.19.08.36.24H322l.25.18.07-.08.22,0,1.51.58,1,.25.35.29h.42l.69.15.34.07-.09.09.08.08a.46.46,0,0,0,.32-.09l.33.09,1,.24.41.1h.57Z" transform="translate(-3.01 0)"/><path class="cls-2" d="M353.21,84.46l-.28.05c-.18.1-.35.21-.52.32l-1.11-.12-.56.05a.81.81,0,0,1-.31-.06h0l-.64-.42-1.6-.77-1.08-.6L346,82.5l-.39-.24h-.18l-.35.45L345,83l-.12.36v.09l-.35.45-.14.4-.19.32v.27a.86.86,0,0,0-.39-.06c-.07,0-.15.11-.23.27.25.15.36.27.35.38l-.38.75-.22.51c-.09.22-.34.38-.75.51a.67.67,0,0,0,0,.2.31.31,0,0,0,.1.15l.19.13v.16a.47.47,0,0,0-.28.09.69.69,0,0,0-.2.25l.15.42-.22.52-.2.47a.51.51,0,0,1-.3.26v.31l-.17.27a2.26,2.26,0,0,1-.08.44l-.18.29-.08.27-.17.45c-.34,0-.55.09-.64.3s0,.39.21.64l-.6,1.88-.23.06h-.24l-.81.23-.22-.07-.16-.06-.2.09a.42.42,0,0,0-.18-.17h-.15v-.35l.07-.09v-.06l.3-.45a3.36,3.36,0,0,1,.14-.61l.45-.81.58-1.21.51-.88.1-.25.33-.17a11,11,0,0,1,.13-1.12l.4-.64c.11-.31.21-.62.31-.94l.21-.63h0A3.18,3.18,0,0,1,342,86v-.27a2.91,2.91,0,0,1,.09-.93h0l.15-.31.09-.61.15-.3c.06-.29.12-.57.17-.86,0-.1,0-.19.07-.29l.65-.5c.2,0,.32-.07.35-.14a.61.61,0,0,0,0-.19l-.63-.4-.21-.09-.25-.13-.47-.41L341.09,80l-1.59-.79-1.84-.61-.28-.16a.83.83,0,0,1-.67.11h-.07l-.34-.18-.33-.18a1.5,1.5,0,0,1,.26-.44,1,1,0,0,1,.4-.18l1.15-.29a3.38,3.38,0,0,1,1.13.26l.33.13a.45.45,0,0,0,.28.47,1.13,1.13,0,0,0,.68,0l.53.26,1,.75.92.32.64.44,1.39.66.47.54.27.14.06-.08.29.15c.5.26.8.42.92.5a1.08,1.08,0,0,1,.3.34l.38.27h.28l.41.15h.6l.84.42.64.16a2.63,2.63,0,0,0,.56.38,6.06,6.06,0,0,0,2.47.56l.11.13Z" transform="translate(-3.01 0)"/><path class="cls-2" d="M171.06,427.2l-.23.15h-.34l-.33.13v.29a.87.87,0,0,1-.59.1l-.51-.16-.42.06h-.31l-.6-.36-1.7-.64L164.5,426l-1.23-.46a1.23,1.23,0,0,1-.54-.39l-.25-.29-.25-.16-.1.23a2.14,2.14,0,0,1-.66-.17,6.46,6.46,0,0,1-.92-.53v.1l-.35-.21a.58.58,0,0,1-.15-.11.39.39,0,0,1-.13-.2l-.25-.08v.07l-.35-.08-1.64-.57-.28-.08c-.2-.09-.27-.21-.21-.34l.09-.19.54.06.07-.15h.22a2.54,2.54,0,0,1,.36-.5,1.3,1.3,0,0,1,.46-.18l0-.35.55-1.06.09-.31.4-.23c-.06-.1-.12-.2-.19-.3l.33-.28a3.11,3.11,0,0,0,.23-.28l.27-.2v-.39l.17-.2V418l.17-.28.09-.36.46-.77.22-.48c.14-.1.27-.21.4-.32l.18-.2-.23-.23c.16-.41.31-.82.47-1.22a.44.44,0,0,0,.35-.07c.05-.2.1-.4.14-.61l-.22-.15a7.61,7.61,0,0,1,.58-1.66,2.22,2.22,0,0,1,.43-.62v-.29c.07-.22.14-.43.22-.65v-.32l-.14-.06v-.37l.31-.09h.33l.45-.11.73.1h.49l.21.2.15.07-.07.13v.1c-.12.26-.25.51-.38.77l-.14.38a.51.51,0,0,1-.17.24.68.68,0,0,1-.24.08l-.17.19v.1l.18.05-.06.13h-.11a1.7,1.7,0,0,1-.05.5h0c-.12.22-.25.44-.38.66a2.63,2.63,0,0,0-.2.64l-.11.22c-.15.27-.31.53-.47.8l-.17-.08a1.33,1.33,0,0,0-.28.3.45.45,0,0,0,.12.56l-.13.23c-.25.56-.5,1.13-.74,1.69a3.73,3.73,0,0,1-.73,1.12l-.06-.1a.37.37,0,0,0-.21.16v.2l.23.18-.1.38-.15.32H162l-.53,1-.17.31a.32.32,0,0,0-.3.16c0,.07,0,.15.09.3l-.26.63-.36.59a.47.47,0,0,0,.05.52,1.52,1.52,0,0,0,.66.46,8,8,0,0,0,.82.29v.12l.28.15.32.33.25.14a.43.43,0,0,0,.38-.1l1.47.73,1,.37,1,.32.16.09-.09.23a1.3,1.3,0,0,0,.91.46c0-.1.1-.17.16-.19a1,1,0,0,1,.33-.05l.18.1a2.33,2.33,0,0,0,.79.12.72.72,0,0,0,.14.24.36.36,0,0,0,.18.12,1.15,1.15,0,0,1,1.08,0Z" transform="translate(-3.01 0)"/><path class="cls-2" d="M196.42,429a.24.24,0,0,1-.06.11l-.41.61a2.57,2.57,0,0,1-.14.58l-.27.25a.46.46,0,0,0-.16-.07.26.26,0,0,0-.17.07.7.7,0,0,0-.13.24.11.11,0,0,0,0,.08,1.46,1.46,0,0,1,.11.55.31.31,0,0,1-.1.15,1.31,1.31,0,0,0-.5.4h-.3l.05.1h-.09l.16.19v.06l-.27.13-.41.35-.25.13q-.14-.21-.24-.24a.21.21,0,0,0-.28.11s0,0,0,.05a.76.76,0,0,0,.1.39,3.53,3.53,0,0,1-1.58.7,18.08,18.08,0,0,1-2.18.38,7.86,7.86,0,0,1-1.68,0h-.26c-.41-.05-.82-.13-1.22-.22h0l-.48-.18-.32-.05-.38-.4h-.39a.81.81,0,0,1-.38,0H184a1,1,0,0,0-.1-.37,1.07,1.07,0,0,0-.25-.27,3.35,3.35,0,0,1-1.3-.05.51.51,0,0,1-.26-.18,1.08,1.08,0,0,1-.29-.13l-.78-.52-.74-.23-.21-.31-.42-.1-.33-.16-.45-.32-1.44-.88-.32-.46-.48-.39c-.12-.25-.25-.5-.37-.76a1.13,1.13,0,0,0-.52-.34c-.07-.16-.13-.31-.2-.46a.89.89,0,0,0,.22-.29q.12-.33-.72-.81v-.08l-.13-.1-.05-.3-.08-.17.1-.24v-1l.18-1c.15-.31.29-.61.44-.91l.2-.24.3-.58c.38-.39.75-.79,1.12-1.18l.17-.23a1.76,1.76,0,0,1,1.09-.55l.06-.14.83-.4.14.1a.27.27,0,0,0,.3,0l.34-.41.32-.19a.94.94,0,0,1,.48-.23h.42l.45-.25.9-.21a3.37,3.37,0,0,1,1-.15l.16.13.44-.24h.22l2.47-.06a1,1,0,0,1,.48.06,1.9,1.9,0,0,1,.54.34h.21l.14-.19.32.16.18.1h.62l.89.34.47.05.36.17.37.09.36.27c.22.11.44.22.65.34l.42.42,1.28.95.1.16.22.24v.11h-.05a.32.32,0,0,0-.14.14.92.92,0,0,0,.19.3l.07-.07a.45.45,0,0,1,.34.37.83.83,0,0,0-.05.35.89.89,0,0,0,.15.31.73.73,0,0,1,.36,0,.67.67,0,0,1,.44.38l.12.31c.11.17.22.33.32.5v.27l.18.42V425a.65.65,0,0,0-.31.34v.11l.53.91v.85c0,.09-.08.18-.13.27h-.2v.11l.19.08V428ZM195,426.54c.1-.34-.07-.61-.5-.81a3.57,3.57,0,0,1,.11-.64l-.33-1v-.37l-.15-.07c0-.11-.09-.21-.13-.31s-.24-.51-.35-.76l-.39-.45c-.13-.17-.25-.34-.37-.52l-.2-.13-.07-.29-.23-.08a.88.88,0,0,1-.47-.28l-.85-.87-1-.46-.7-.38-.71-.21-.55-.18h-.63l-.54-.11-.63.12-.25-.17h-.32l-1.52.23-.32-.06a1.51,1.51,0,0,1-.75.31h-.36l-1.37.58-.23.06a3.5,3.5,0,0,0-1.27.76l-.19.16h-.26l-.2.17-.36.52-.21.1-.15.19-.46-.25a.58.58,0,0,1-.21.2.93.93,0,0,1-.29,0l-.07.1c.22.28.31.5.25.66l-.31.65-.24,1.19-.13.27c.06.24.11.48.17.72a.42.42,0,0,0-.41.21.33.33,0,0,0,0,.24.47.47,0,0,0,.25.19h.25c.08.22.17.44.26.66-.15.1-.23.16-.24.2v.21h.1c.11.2.22.41.34.61a3.82,3.82,0,0,0,.52.55l.66,1c.21.13.43.25.65.37s.17.33.25.49l1.12.88.92.77.36.1,2.17,1.07.35.14.29.07h.52l1.21.47.57.07h1.38l.14.19c.28,0,.44,0,.49-.08l.22-.33,1.52-.59.75-.65.29-.27.16.05.24-.25v-.15l.13-.18.33-.9c.11-.13.21-.26.32-.38a.92.92,0,0,0,.16-.31l.2-.07c.11-.21.22-.43.32-.65a1.39,1.39,0,0,1-.05-.7h0c.13-.35.25-.71.37-1.06l.08-.36C194.83,426.81,195,426.69,195,426.54Z" transform="translate(-3.01 0)"/><path class="cls-2" d="M217.1,440a.61.61,0,0,1-.17.34l-.16.2c-.1.16-.19.32-.28.48a.49.49,0,0,1-.37.1l-.62-.12-1.6.18-1.68-.24h-1.83a5.46,5.46,0,0,1-.69-.1,13.45,13.45,0,0,1-1.65-.46l-.29-.11a.56.56,0,0,0-.48-.62.87.87,0,0,0-.57.11v.16l-2.31-1.22v-.17h-.16a1.72,1.72,0,0,1-.74-.53l-.55-.63-.39-.41c0-.1-.09-.2-.13-.31l-.81-1.12v-.3c.17,0,.26,0,.29-.08a.2.2,0,0,0-.08-.21c-.08-.05-.24-.12-.48-.23l-.27-.11.08-.29a1.07,1.07,0,0,1-.3-.3,3.16,3.16,0,0,1-.16-.43l.12-.07-.07-.11-.19,0-.27-2.2.14,0,.07-.1v-.71c.05-.23.11-.46.16-.69a1.47,1.47,0,0,1,.46-.76h.06a.76.76,0,0,0,.36-.21,1,1,0,0,1,0-.43.57.57,0,0,1,.19-.29l1.17-1.32.51-.16.3-.35L204,426l.29-.16h.62l.6-.49a1.93,1.93,0,0,1,.93-.3l1-.09.64-.13.55-.16,1.25-.13a6.7,6.7,0,0,1,1-.05l.78.17,2.13.23.7.12.27.08.38.25.61.1.47.34h.28a.74.74,0,0,1,.44.22.46.46,0,0,1,.11.4.51.51,0,0,1-.33.37l-.47.15-.19.13a.45.45,0,0,1-.23,0,.44.44,0,0,1-.15,0l-.87-.62-.23-.07h0a.46.46,0,0,0-.11-.3l-.15-.05-.68-.05-.84-.35-1.06-.15-.57-.18H211a2,2,0,0,0-.73-.05l-.84.13-.38-.06-.6.15-.47.05-.93.25-.23-.12-.41.18-.06.36a3.73,3.73,0,0,0-1.08.32l-1.23.76-.24.09.07.11-.15.21a1.46,1.46,0,0,1-.29.41.7.7,0,0,1-.34.12l.13.22-.05.23-.27.4-.39,1.41c0,.09-.1.17-.14.26a.39.39,0,0,0,0,.31,4.9,4.9,0,0,1,.16.64l-.12.15h-.26l.05.25.36.66.09.72.12.25v.27l.33.83.08.26.17.25c.08.21.16.42.23.63l.19.19a1.53,1.53,0,0,1,.21.4l.25.08a1.27,1.27,0,0,1,.27.56l.23.13.89.63.36.18.3.39a3.49,3.49,0,0,0,1,.55l1.7.75a4.37,4.37,0,0,0,.7.22l.22.05,1,.14,1.46.32.71-.16h1.16l.6-.18,1-.14.75-.27h.1a.25.25,0,0,1,.33.16A.26.26,0,0,1,217.1,440Z" transform="translate(-3.01 0)"/><path class="cls-2" d="M238.76,444.06a.31.31,0,0,1-.06.13l-.54.34-.59.64h-.69V445c0-.1-.09-.2-.13-.31l.05-.23v-.22a1.33,1.33,0,0,1-.16-.59h-.21l-.07-.27c-.13-.28-.25-.56-.37-.84v-.41c-.19-.37-.37-.73-.54-1.1a.91.91,0,0,1-.07-.49v-.18a.78.78,0,0,1-.32-.33,3.25,3.25,0,0,1-.42-1.2l-.42-.23c-.11.34-.28.5-.5.47h-.05l-1.27-.38h-.47l-.33-.09h-1.8l-1.05-.19-.58.06-.42-.2-.32-.12a1.06,1.06,0,0,1-.31.21.51.51,0,0,1-.3,0h-.08l-1.09-.23h-.42l-.54-.06c-.19,0-.44.24-.74.7l-.3.41h-.14a8.15,8.15,0,0,1-1.21,1.53l-.07.23c-.07.08-.15.15-.23.23l-.93,1.31c-.07.13-.28.2-.62.21v.19a3.09,3.09,0,0,1-.43,0,1.73,1.73,0,0,1-.73-.39l.63-.7.42-.35.37-.37.22-.23.21-.19v-.09c.35,0,.55-.11.58-.35l.05-.27.46-.37c.24-.33.48-.66.71-1l.38-.35.47-.67.52-.66.6-.69.58-.38a.12.12,0,0,0,.07-.11.37.37,0,0,0-.1-.22,2.08,2.08,0,0,0,.36-.2,1.09,1.09,0,0,0,.23-.25l-.12-.24.18-.21c.1-.17.19-.34.28-.52a2.16,2.16,0,0,1,.35-.24v-.12l.75-1.25c.19-.35.39-.69.58-1a2.76,2.76,0,0,1,.65-.67l-.06-.27c0-.1.08-.2.11-.3a1.85,1.85,0,0,1,.21-.45.37.37,0,0,1,.25-.15,2.1,2.1,0,0,1,.43-.05l.1-.16a.68.68,0,0,0-.07-.37.67.67,0,0,1,0-.2.25.25,0,0,1,.18-.21l.88-.42a4,4,0,0,0,.22-.34.93.93,0,0,1,.71-.25,4.33,4.33,0,0,0,.08.5h.15l-.07.12c0,.12.09.25.13.37l.29.47c.12.28.23.57.35.85a2.8,2.8,0,0,1,.16.67l.24.56-.31.05a.3.3,0,0,0,.08.24c.27.2.4.37.38.5v.21l.25.33.27.56.14.3v.09l-.12.21v.24l.14.24.33.32c.11.29.22.58.34.87l.18.38v.28c.29.3.43.52.41.66a.44.44,0,0,1-.06.16l.22.26.47.94.1.2.12.26.12.25a2,2,0,0,1,.2.42.92.92,0,0,1,0,.33c.28.17.41.33.4.5V440a4.71,4.71,0,0,1-.1.49v.17l.49.3.14.22.06.23c0,.12.15.25.38.39V442l.39.45.36.68.2.25a1.53,1.53,0,0,1,.21.4A1,1,0,0,1,238.76,444.06Zm-4.59-6.52-.1-.1.06-.08v-.12h-.25a2,2,0,0,1-.13-.91v-.24l-.46-.17c-.15-.39-.3-.78-.46-1.17h-.17c-.2-.5-.39-1-.58-1.49l.13-.26v-.3l-.53-.35c-.23-.59-.45-1.18-.67-1.77a2.23,2.23,0,0,0-.49-.61l-.16.08-.22.46H230a3.1,3.1,0,0,1-.3.57,1.64,1.64,0,0,1-.35.29.85.85,0,0,0-.43.5l-.08.27c-.24.36-.48.71-.71,1.07l-.21.34-.13.18-.1.12-.16.12-.13.23a1,1,0,0,1-.2.26.66.66,0,0,1-.28,0l-.07.27a2.54,2.54,0,0,1-.33.84,1.51,1.51,0,0,1-.6.43l.18.36a.33.33,0,0,0-.24,0,.5.5,0,0,0-.16.22l-.13.27.21.06.39.17h.29l.28.13.06-.09h.23l1.59.32,1,.07.4.21.14-.08h1.3l-.06.11.09.06a.42.42,0,0,0,.3-.15h1.76l.24-.06A2,2,0,0,0,234.17,437.54Z" transform="translate(-3.01 0)"/><path class="cls-2" d="M257.34,444.35l-.15.22-.3.16-.26.25.12.26c-.21.2-.38.31-.5.3h-.53l-.37.21-.29.07h0l-.68-.12H252.6l-1.66-.2h-1.29a1.06,1.06,0,0,1-.62-.17l-.34-.18-.28-.07v.26a2.5,2.5,0,0,1-.66.09,5.67,5.67,0,0,1-1-.18v.1l-.39-.07-.18,0a.49.49,0,0,1-.18-.14h-.26v.07l-.35,0-1.7.07h-.29q-.32,0-.3-.24v-.21l.52-.14v-.17l.18-.1a2.07,2.07,0,0,1,.16-.59,1.06,1.06,0,0,1,.36-.34,2.09,2.09,0,0,0-.08-.34,11.7,11.7,0,0,1,.13-1.19v-.32l.29-.36-.28-.22.21-.37a1.18,1.18,0,0,1,.11-.35l.17-.28-.17-.35.08-.25v-.21l.06-.32v-.37l.15-.88v-.53c.09-.14.17-.29.26-.44l.09-.25-.29-.14V435a.46.46,0,0,0,.3-.19l-.09-.62-.25-.06a8.62,8.62,0,0,1-.06-1.76,2.29,2.29,0,0,1,.18-.74.81.81,0,0,0-.11-.26,3.78,3.78,0,0,1,0-.68l-.14-.3h-.15c0-.11-.11-.22-.17-.33l.26-.19.31-.09.37-.27.7-.17.2-.12h.25l.26.11h.16v.15l.07.07a8.33,8.33,0,0,1-.08.86v.41a.67.67,0,0,1-.06.28.78.78,0,0,1-.2.16l-.08.24.07.08H247v.14l-.09.07.13.49h0l-.12.75V434l-.15.92h-.24a1.34,1.34,0,0,0-.14.38.43.43,0,0,0,.3.47V436a14.09,14.09,0,0,1-.08,1.84,3.69,3.69,0,0,1-.27,1.31l-.09-.08a.43.43,0,0,0-.14.23v.2l.28.09v.79l-.12,1.15v.35c0,.12-.22.19-.22.26s.06.13.19.24,0,.46,0,.68l-.12.69a.49.49,0,0,0,.23.47,1.7,1.7,0,0,0,.76.18,6,6,0,0,0,.85,0l.08.1h.3l.42.19H249a.45.45,0,0,0,.32-.23l1.6.15h1l1.08-.08h.18v.25a3.13,3.13,0,0,0,.6.16,2.57,2.57,0,0,0,.4-.06.31.31,0,0,1,.08-.24,1,1,0,0,1,.28-.17h.2a2.21,2.21,0,0,0,.76-.17,1,1,0,0,0,.22.18.34.34,0,0,0,.2,0,1.19,1.19,0,0,1,1-.41Z" transform="translate(-3.01 0)"/><path class="cls-2" d="M287.12,428.11a1.1,1.1,0,0,1-.11.5l-.06.72v.51c-.07.43-.14.86-.22,1.29l-.08.33h-.29l-.19.06v.29l.35.08a1.48,1.48,0,0,1,0,.42.63.63,0,0,1-.2.26,1.63,1.63,0,0,1-.23,1.16c-.1.19-.21.38-.32.57l.07.35-.06.4v.38l-.23.6v.32a2.73,2.73,0,0,1-.17.75l-.12.36h-.16a.52.52,0,0,1-.22.32l.09.37h.15v.33c-.1.32-.19.64-.29.95a4,4,0,0,1-.25.56v.87l.22.41a2,2,0,0,1-.13.25l-.32.52v.48l-.07.3v.33l-.28.47a1.57,1.57,0,0,1-.07.56.9.9,0,0,1-.24.51.64.64,0,0,1-.44.23l-.32-.07a1,1,0,0,0-.1-.3c-.11-.13-.21-.27-.31-.41l-.3-1-.23-.51h-.19v-.55l.26-.1a1,1,0,0,0-.24-.3.89.89,0,0,0-.39-.12V441l-.08-.32a.41.41,0,0,0,.21-.2l-.14-.12h-.08l-.12-.23-.45-1.24-.47-.63c-.12-.42-.25-.85-.38-1.27l-.47-.75-.21-.23a.39.39,0,0,0,.36-.31.37.37,0,0,0-.28-.13h-.26l-.06-.16v-.62c-.06-.14-.13-.28-.2-.42v-.22a.32.32,0,0,0-.27-.14.15.15,0,0,0-.14.1l-.36,1.7-.23.25-.23.41-.21.61a1.68,1.68,0,0,0,.07.59.7.7,0,0,1-.42.63v.27c-.05.1-.09.21-.13.31v.66l-.17.25-.08.28.08.06-.06.27c-.12.47-.25,1-.38,1.42a3.73,3.73,0,0,1-.11.64,1.8,1.8,0,0,1-.08.31,1.41,1.41,0,0,0,0,.29,1.16,1.16,0,0,0,.18.43.66.66,0,0,0-.28.16.55.55,0,0,0-.12.24l.08.07-.12.39c0,.26-.06.52-.08.78a1.4,1.4,0,0,1-.23.25l-.2.16v-.1a1.37,1.37,0,0,1-.39-.33,3.73,3.73,0,0,1-.3-.64l-.35-.84c-.12-.42-.25-.85-.37-1.28a4.25,4.25,0,0,0-.44-.74,1.89,1.89,0,0,0,.11-.25l.25-.45c0-.05-.09-.13-.26-.24v.12h-.45a2.83,2.83,0,0,1-.11-.31c-.05-.24-.1-.48-.14-.73l-.11-.22c.05-.2.11-.4.17-.6l-.09-.19h-.41c-.18-.36-.37-.72-.54-1.09l.08-.21V437l-.34.06c0-.12-.09-.23-.13-.35l-.27-.37-.47-1-.29-.25c-.09-.29-.19-.57-.29-.86L270,434l.09-.35a.33.33,0,0,0-.11-.25l-.37-.3-.42-1.25-.6-.78h0a1.54,1.54,0,0,1,.38-.59h.28l.11-.18.26-.18.42-.23.31-.23a.85.85,0,0,1,.45.53l.42,1.42c0,.1.09.2.13.29a1.14,1.14,0,0,1-.47.19h-.23a.52.52,0,0,0,.57.44h.3a1.65,1.65,0,0,0,.11.36,4.24,4.24,0,0,0,.2.49l.22.3.07.29a.89.89,0,0,1,.29.49c0,.1-.1.19-.31.27a.67.67,0,0,1,.14.36.59.59,0,0,1-.1.34l.25.18.37.07v.39l.43.38.15.41c0,.12.09.25.14.38l-.14.15a1.11,1.11,0,0,1,.49.47,11.14,11.14,0,0,1,.86,2.45c.17.62.38.92.62.91h.05l.27-.48.33-.36.15-.24a.58.58,0,0,1-.24-.35.25.25,0,0,1,0-.17c.19-.33.38-.66.56-1s.07-.49.1-.73.23-.77.34-1.15v-.39L277,436v-.9c.05-.11.11-.22.17-.33l.05-.46c.06-.14.11-.29.17-.43l-.06-.47c.05-.3.09-.59.13-.88l.12-1.28.22-.24c.06-.1.11-.2.16-.3l-.13-.26a2.49,2.49,0,0,0,.11-.29,1,1,0,0,0,.69-.34l.45.05.23.33.29.22c.09.06.18.35.27.88l.05.29-.3.17a1,1,0,0,0,.14.5.65.65,0,0,0,.43.09c.08.3.17.6.25.9l.09.22.45.7,0,.29v.09l-.18.16.31.29a.34.34,0,0,1-.31.26.7.7,0,0,0,.23.28.81.81,0,0,0,.31.06,3.68,3.68,0,0,1,.47,1.41h-.18l.15.23.25.26.15.88.47,1,.27.73a.62.62,0,0,0,.46.21l.11.29a1.32,1.32,0,0,1,.08-.33c.13-.4.27-.79.4-1.19v-.23l.3-.56.2-.37-.26-.24.06-.2.21-.2.33-2.1.18-.35c0-.42.06-.83.08-1.25a9.34,9.34,0,0,1,.16-1.05v-.17a.49.49,0,0,0,.24-.39l.07-.26-.24-.25a4.91,4.91,0,0,1,.13-.75v-.45a2.67,2.67,0,0,0-.08-.48l.25-.27.31-.5c.31-.18.61-.37.91-.56l.12-.27h.12a.25.25,0,0,1,.17,0A.18.18,0,0,1,287.12,428.11Z" transform="translate(-3.01 0)"/><path class="cls-2" d="M312.94,431.94a.29.29,0,0,1,0,.13,2.52,2.52,0,0,1-.07.72c-.07.24.11.39.16.58l-.11.35a.54.54,0,0,0-.18,0c-.05,0-.09.06-.11.14a.45.45,0,0,0,0,.28.06.06,0,0,0,0,.06,1.39,1.39,0,0,1,.36.44.25.25,0,0,1,0,.17,1.28,1.28,0,0,0-.24.59l-.25.18.1.06-.06.09.23.09v.08l-.18.24c-.07.17-.13.33-.19.5l-.16.24a.46.46,0,0,0-.32-.1.21.21,0,0,0-.19.23.09.09,0,0,0,0,.05.78.78,0,0,0,.28.29,3.58,3.58,0,0,1-1,1.37,17.83,17.83,0,0,1-1.73,1.39,8,8,0,0,1-1.44.84l-.24.09a9.34,9.34,0,0,1-1.16.4h-.05l-.5.07-.31.11-.52-.17-.33.21a.75.75,0,0,1-.32.21h-.1a1.16,1.16,0,0,0-.26-.28,1.12,1.12,0,0,0-.35-.12,3.35,3.35,0,0,1-1.16.59.76.76,0,0,1-.3,0h-.31L301,442l-.75.15-.33-.17-.41.11h-.37l-.54-.05-1.67-.08-.49-.26-.6-.11-.68-.48a1.1,1.1,0,0,0-.62-.06l-.39-.31a1,1,0,0,0,0-.35c0-.24-.37-.36-1-.37v-.09h-.15l-.19-.24-.14-.11v-.25l-.36-.67a2,2,0,0,0-.08-.22c-.11-.33-.22-.66-.34-1l-.06-1,.06-.31v-.65c.14-.52.27-1,.4-1.58v-.27a1.74,1.74,0,0,1,.68-1v-.15l.53-.75h.17a.28.28,0,0,0,.24-.18l.09-.52.19-.32a1,1,0,0,1,.31-.44l.35-.22.27-.43.68-.62a3.88,3.88,0,0,1,.79-.61h.2c.09-.14.18-.28.26-.42l.21-.09c.71-.4,1.41-.82,2.11-1.23a1.25,1.25,0,0,1,.45-.18,2.22,2.22,0,0,1,.63,0l.18-.1v-.23h.61l.56-.26.93-.12.44-.18h.4l.36-.1.44.06h.73l.56.17,1.57.21.17.1.31.1v.12h0a.26.26,0,0,0-.06.19.9.9,0,0,0,.31.17v-.1a.47.47,0,0,1,.47.17.79.79,0,0,0,.13.33.8.8,0,0,0,.28.2.73.73,0,0,1,.31-.17.63.63,0,0,1,.56.12l.26.21.52.28.12.25.36.28.15.29a.77.77,0,0,0-.11.45.21.21,0,0,0,0,.11l.9.54.11.24.32.49a1.41,1.41,0,0,1,0,.29l-.16.14v.11h.21l.11.25A6.32,6.32,0,0,1,312.94,431.94Zm-2.38-1.5c-.08-.34-.35-.49-.83-.46l-.21-.62-.77-.74-.18-.33h-.16l-.27-.21-.67-.49-.55-.21-.57-.28h-.24l-.2-.22h-.23a.83.83,0,0,1-.54,0l-1.16-.35-1.08.06h-.79l-.72.16-.56.1-.57.27-.52.17-.49.4H299l-.28.14-1.22.93-.3.1a1.47,1.47,0,0,1-.5.63l-.31.18-.91,1.17-.17.16a3.55,3.55,0,0,0-.73,1.28l-.09.23-.25.09-.09.25a2.6,2.6,0,0,1-.05.62l-.14.19v.24h-.51a.73.73,0,0,1-.1.28.91.91,0,0,1-.21.18v.12c.33.14.51.29.53.46s.07.54.1.82a8.41,8.41,0,0,0,.35,1.15v.3c.16.18.32.37.49.55-.19.15-.27.28-.25.38a.3.3,0,0,0,.14.19.47.47,0,0,0,.31.05H295l.54.45a.65.65,0,0,0-.11.29l.13.17h.1l.58.38.72.23,1,.56h.74l.46.31,1.39.23,1.16.24.37-.08,2.41-.16.37-.05.28-.08.48-.2,1.28-.18.52-.21.89-.54.34-.16.21.1c.25-.12.38-.23.39-.31V439c.36-.42.71-.83,1.05-1.25.12-.31.23-.62.34-.93a1.14,1.14,0,0,1,.13-.38h.16l.08-.33-.1-.11v-.23l-.15-.95a2.25,2.25,0,0,1,.1-.49V434l.14-.15v-.73a1.28,1.28,0,0,1-.38-.59h0c-.06-.37-.13-.74-.19-1.11l-.1-.35C310.5,430.78,310.6,430.6,310.56,430.44Z" transform="translate(-3.01 0)"/><path class="cls-2" d="M338,424.7a.29.29,0,0,1,0,.13v.73c0,.24.15.37.22.56s-.05.24-.07.36h-.18c-.05,0-.08.07-.09.16a.66.66,0,0,0,0,.28l0,.05a1.42,1.42,0,0,1,.41.4.25.25,0,0,1,0,.17,1.23,1.23,0,0,0-.17.62l-.23.2.1.05-.05.09.24.07v.08a2.26,2.26,0,0,0-.16.26,2.64,2.64,0,0,1-.13.52c0,.18-.09.17-.13.25a.65.65,0,0,0-.34-.06.22.22,0,0,0-.16.25l0,.05c0,.06.12.14.3.25a3.67,3.67,0,0,1-.89,1.49,16.62,16.62,0,0,1-1.57,1.57,7.38,7.38,0,0,1-1.35,1l-.23.12a11.45,11.45,0,0,1-1.12.53h-.05l-.49.13-.3.14-.54-.11-.3.25a.89.89,0,0,1-.3.24h-.1a1,1,0,0,0-.29-.25.9.9,0,0,0-.36-.08,3.19,3.19,0,0,1-1.09.72.42.42,0,0,1-.31,0,.82.82,0,0,1-.31.07h-.94l-.73.24-.35-.14-.4.16-.36.06h-.55l-1.68.11-.52-.2-.61-.05-.73-.4a1.09,1.09,0,0,0-.62,0l-.43-.27a1,1,0,0,0,0-.35c-.07-.24-.41-.32-1-.26v-.09h-.16l-.21-.22-.16-.09-.06-.25-.43-.62-.11-.21-.44-1c-.06-.34-.12-.67-.17-1v-.31c0-.1,0-.43-.08-.64.08-.54.15-1.08.22-1.62v-.28a1.79,1.79,0,0,1,.57-1.07v-.15l.45-.81h.18a.25.25,0,0,0,.21-.21v-.53l.15-.34a1,1,0,0,1,.26-.47l.33-.26.22-.46.61-.68a4,4,0,0,1,.72-.7h.21l.22-.45.2-.11c.66-.48,1.32-1,2-1.47a1.17,1.17,0,0,1,.43-.22,1.72,1.72,0,0,1,.64,0l.16-.12v-.24l.35-.05h.26l.52-.32.92-.23.42-.23.39-.07.36-.14h.45l.72-.1.58.11h1.6l.18.07.32.07v.11h0a.23.23,0,0,0,0,.2c0,.05.12.09.33.13v-.1a.47.47,0,0,1,.49.11.74.74,0,0,0,.16.32,1.08,1.08,0,0,0,.3.16.9.9,0,0,1,.3-.21.7.7,0,0,1,.58.07l.28.17.55.23.14.23.4.24.17.27a.7.7,0,0,0-.05.45l.06.11,1,.43.13.23.38.45a1.35,1.35,0,0,1,.05.29l-.14.15v.11h.21l.14.23Zm-2.55-1.21c-.11-.34-.41-.46-.88-.37l-.27-.59-.87-.65a3.28,3.28,0,0,0-.2-.31H333l-.3-.17L332,421l-.58-.14-.6-.21h-.24l-.22-.2-.23.08a1,1,0,0,1-.54,0l-1.2-.23-1.07.19-.79.09-.71.24-.54.17-.54.33-.51.22-.44.46h-.31l-.27.17-1.11,1.06-.3.13a1.36,1.36,0,0,1-.43.69l-.28.21-.78,1.26-.16.19a3.84,3.84,0,0,0-.59,1.34l-.06.25-.24.11-.06.26v.63l-.12.2v.24l-.51.06a.72.72,0,0,1-.06.29,1.89,1.89,0,0,1-.2.2v.13c.34.09.54.23.58.39l.18.8.48,1.11.05.29.55.5c-.17.17-.24.3-.21.41a.29.29,0,0,0,.17.17.42.42,0,0,0,.31,0l.1-.05h.14l.59.39a.79.79,0,0,0-.08.3l.15.15h.1l.62.31.75.15,1.1.44.74-.07.49.25,1.42.08,1.19.1.35-.12,2.38-.38.36-.09.28-.11.45-.26,1.26-.32.5-.26.84-.64.31-.2.23.08c.23-.15.35-.27.35-.35v-.4c.3-.45.61-.9.91-1.36.08-.32.15-.64.23-1l.09-.39h.16V429l-.11-.1v-.22c-.09-.31-.18-.62-.26-.93s0-.33,0-.5v-.34l.13-.17a6,6,0,0,0-.11-.72,1.39,1.39,0,0,1-.45-.54h0c-.11-.36-.21-.72-.31-1.08l-.15-.34c.21-.21.31-.4.23-.55Z" transform="translate(-3.01 0)"/><path class="cls-2" d="M359.67,414.28a2.3,2.3,0,0,0,.1.51l.29.5a1,1,0,0,1,0,.73c0,.1-.06.21-.08.31s-.29.21-.43.32a.81.81,0,0,0,0,.38h.07l.12-.06-.14-.1.31.05-.05.2.05.3a.9.9,0,0,1-.05.36,4.32,4.32,0,0,0-.11.48l-.67.94c-.06.29-.11.58-.16.87l-.29.44-.45,1.13a1.77,1.77,0,0,1-.4.54l-.77.66-.17.18a.38.38,0,0,1,0,.36l-.21.19-1.13,1.25-.64.86a1.78,1.78,0,0,1-.72.58,1,1,0,0,1-.42.05,6.75,6.75,0,0,1-.79.72l-.62.49c-.15.09-.3.18-.44.28l-1,.47-.25.15h-.73a2.57,2.57,0,0,1-.83.63L349,429a.91.91,0,0,1-.61,0l-.47.13.1.26a1.93,1.93,0,0,1-.78.54,2.93,2.93,0,0,1-.6.15c-.75.1-1.17.16-1.27.19s-.29.08-.31,0v-.06l.12-.26.27-.17a2.27,2.27,0,0,1,.46-.3h.1l.13-.27c.1-.21.13-.33.11-.38l-.13-.34V428l-.06-.23-.05-.13.12-.16a.58.58,0,0,1-.34-.33l-.18-.67-.09-.31.17-.34a.6.6,0,0,1-.26-.24l-.15-.34L345,425l-.21-.64c-.09-.26-.19-.51-.29-.77s0-.29,0-.43a1.13,1.13,0,0,0,0-.26c0-.13-.19-.21-.41-.26l-.19-.42-.07-.19a.57.57,0,0,1,.13-.39l-.21-.62-.29.12-.16-.21-.17-.59c-.15-.27-.3-.54-.44-.81v-.28l-.29-.26c-.14-.35-.28-.71-.43-1.06l-.44-.22a4.11,4.11,0,0,1,.08-.6v-.17l-.3-.6-.16-.35a1.87,1.87,0,0,1-.53,0h-.35l-.12-.32.35-.3.89-.34.41-.39a1.64,1.64,0,0,1,.57-.33l.75-.31h.46l.25-.2h.25l.38-.15.45-.16.44-.12h0l.35-.22.86-.07.92-.36h.36l1.33-.4.86-.11,1-.24.71-.07h.3l.05.25.2.07v.17h.07v.11l.06-.05.34-.3.28-.23h.33l.46-.08.32.05.13.23h.11l.42-.21q.23-.1.66.15V412a2.15,2.15,0,0,1,1.07,0,5.07,5.07,0,0,1,1.51.46l-.1.23.11.14.23.15h.3a1.53,1.53,0,0,1,.45.39c-.12.13-.16.23-.12.32a.13.13,0,0,0,.06.07l.55.3A.39.39,0,0,1,359.67,414.28Zm-2.17.72a.45.45,0,0,1-.56-.3h-.11l-.05-.13a.8.8,0,0,0-.29-.26l-.37-.23V414l-.31-.09-.74-.14-.25-.06-.31-.13c-.12-.07-.26-.13-.41-.2l-.25.11a2.19,2.19,0,0,1-.49.17l-1.33-.07-.53.13h-.37l-.28.06-.15-.22-.39.09a.61.61,0,0,0-.23.25,2.51,2.51,0,0,0-.67,0l-.37.08h-.17l-.18-.06-.25-.1a1.22,1.22,0,0,1-.44.34.77.77,0,0,1-.52.06l-.35-.07-.75.18-1.72.46-.77.38h-.2l-.08.13v.27h-.29l.08.33a2.18,2.18,0,0,1,.14.76l.15.21a4.19,4.19,0,0,1,.4.54l.05.2h-.25a1.45,1.45,0,0,0,.47.62l.12.31h-.16a.39.39,0,0,1-.18.18H344v.24l.24.13h.38a.29.29,0,0,1,.17.19c-.13.13-.19.24-.15.33s0,.09.06.1l.46.44.69,2,.2.24a3.13,3.13,0,0,0,.1.6h.12a2.17,2.17,0,0,0,.11.42l.29.58a.53.53,0,0,1,0,.35,2.27,2.27,0,0,1-.29.4l.18.31.51.07.1.26c.15.45.31.89.47,1.34a2.48,2.48,0,0,0,.19.26l.26.34a.58.58,0,0,1,.17.21,1.22,1.22,0,0,1,0,.27l-.22.08c-.16.07-.24.24-.26.52a9.21,9.21,0,0,0,1.25-.33l1.6-.67.59-.19c.54-.4,1.09-.8,1.62-1.21l.27-.13,1.16-1,.77-.72.31-.29.18-.31.75-.69c.14-.3.28-.6.41-.9l.23-.22.08-.22V421l.38-.46a2.08,2.08,0,0,1,.11-.48c0-.16.17-.51.26-.77V419a1.7,1.7,0,0,0,.45-.26.17.17,0,0,0,0-.21c0-.1-.18-.12-.4-.07a2.23,2.23,0,0,0,.19-1.05,5.07,5.07,0,0,0-.27-1.33A4.62,4.62,0,0,1,357.5,415Z" transform="translate(-3.01 0)"/><polygon class="cls-3" points="367.22 407.75 387.92 388.7 394.76 380.18 397.93 376.42 404.61 366.68 409.35 358.37 414.11 349.75 416.87 343.38 420.49 335.4 423.5 326.36 393.25 326.04 374.5 326.09 343.76 326.08 316.94 326.16 301.12 326.19 287.25 326.23 268.81 326.25 247.01 326.3 212.94 326.39 183.63 326.59 135.51 326.7 107.52 326.42 82.77 326.49 81.77 326.49 87.26 339.23 92.07 349.71 95.09 356.12 98.61 362.7 103.88 369.93 112.41 381.66 118.36 388.89 125.19 395.38 132.2 402.11 138.06 407.09 143.23 410.83 146.22 406.07 137.25 398.83 127.63 389.14 122.03 382.89 112.11 370.79 103.13 356.93 98.07 346.7 91.53 333.22 121.28 332.64 148.28 332.71 186.02 332.53 231.2 332.18 267.14 331.87 313.39 331.66 373.65 332.15 403.75 331.9 415.02 332.38 408.05 348.43 399.92 362.04 393.87 371.43 382.59 384.98 368.57 399.12 363.95 402.76 367.22 407.75"/><polygon class="cls-3" points="138.37 96.36 117.62 115.36 110.76 123.86 107.58 127.61 100.87 137.33 96.12 145.63 91.33 154.23 88.56 160.6 84.91 168.57 81.87 177.6 112.12 178 130.87 178 161.62 178.08 188.44 178.07 204.25 178.09 218.13 178.09 236.56 178.12 258.37 178.12 292.44 178.12 321.75 177.99 369.86 178.01 397.86 178.36 422.61 178.35 423.61 178.35 418.15 165.6 413.36 155.1 410.36 148.69 406.86 142.1 401.61 134.85 393.11 123.11 387.18 115.86 380.36 109.36 373.38 102.61 367.53 97.61 362.36 93.86 359.36 98.61 368.32 105.87 377.91 115.59 383.49 121.85 393.38 133.98 402.32 147.85 407.36 158.1 413.86 171.6 384.11 172.1 357.11 171.97 319.38 172.05 274.19 172.28 238.25 172.49 192 172.59 131.75 171.94 101.64 172.11 90.37 171.6 97.39 155.57 105.55 141.98 111.63 132.6 122.94 119.08 137 104.98 141.63 101.36 138.37 96.36"/><text class="cls-4" transform="translate(123.51 225.02)">OLD LINE</text><text class="cls-5" transform="translate(154.44 313.28)">BBQ</text><polygon class="cls-6" points="158.62 273.76 160.05 274.94 161.49 273.94 161.49 272.57 159.62 272.57 158.62 273.76"/></svg>